<?xml version="1.0" encoding="utf-8"?>
<!-- Svg Vector Icons : http://www.onlinewebfonts.com/icon -->
<!DOCTYPE svg PUBLIC "-//W3C//DTD SVG 1.1//EN" "http://www.w3.org/Graphics/SVG/1.1/DTD/svg11.dtd">
<svg version="1.1" xmlns="http://www.w3.org/2000/svg" xmlns:xlink="http://www.w3.org/1999/xlink" x="0px" y="0px" viewBox="0 0 1000 1000" enable-background="new 0 0 1000 1000" xml:space="preserve">
<metadata> Svg Vector Icons : http://www.onlinewebfonts.com/icon </metadata>
<g><g transform="translate(0.000000,511.000000) scale(0.100000,-0.100000)"><path d="M333.8,4801c-37.9-11.1-91.3-42.3-120.3-69C120,4645.1,100,4556,100,4244.2v-289.5h1002.1h1002.2v289.5c0,343-28.9,440.9-153.7,516.7c-77.9,51.2-93.5,51.2-815.1,55.7C732.5,4818.8,369.5,4812.1,333.8,4801z"/><path d="M2839.2,4201.9c-138.1-73.5-167-151.4-173.7-496.6l-8.9-307.3h714.9h714.9v314c0,278.4-4.5,325.1-44.5,387.5c-82.4,131.4-140.3,144.8-661.4,144.8C2970.6,4244.2,2908.3,4239.8,2839.2,4201.9z"/><path d="M7177.4,3687.5c-376.3-84.6-706-167-732.7-187.1c-77.9-53.4-131.4-151.4-131.4-238.3c0-102.4,46.8-331.8,66.8-331.8c31.2,0,1917.4,418.7,1926.4,427.6c4.5,4.4-6.7,77.9-26.7,160.3c-24.5,111.3-53.4,173.7-104.7,231.6C8059.3,3874.5,7981.4,3870.1,7177.4,3687.5z"/><path d="M100-31.6v-3140.1h1002.1h1002.2V-31.6v3140.1H1102.1H100V-31.6z"/><path d="M2665.5-169.7l6.7-2990.9l708.2-6.7l706-4.5v2995.3v2995.3h-712.6H2661L2665.5-169.7z"/><path d="M7449.1,2580.6c-521.1-115.8-948.7-213.8-950.9-216c-8.9-8.9,1267.2-5814.7,1282.8-5828.1c6.7-6.7,447.6,82.4,977.6,200.4c792.8,173.7,964.3,218.2,955.4,247.2c-4.5,17.8-291.7,1334-641.4,2921.8c-347.4,1590.1-641.4,2888.4-654.7,2888.4C8406.7,2792.2,7970.2,2696.4,7449.1,2580.6z"/><path d="M4865.8,2513.8c-17.8-6.7-57.9-33.4-84.6-60.1c-102.4-91.3-115.8-149.2-115.8-469.9v-300.6h857.4h857.4v318.5c0,347.4-15.6,398.6-147,485.5c-60.1,37.9-113.6,42.3-699.3,40.1C5184.2,2527.2,4883.6,2520.5,4865.8,2513.8z"/><path d="M4665.4-1033.8v-2137.9h857.4h857.4v2137.9v2137.9h-857.4h-857.4V-1033.8z"/><path d="M8836.5-3826.4c-503.3-111.3-922-207.1-926.4-213.8c-17.8-17.8,51.2-296.2,86.8-351.9c46.8-71.3,162.6-138.1,238.3-138.1c73.5,0,1376.3,280.6,1469.8,316.2c33.4,13.3,91.3,57.9,126.9,100.2c75.7,84.6,86.9,187.1,40.1,383c-20,93.5-33.4,113.6-71.3,111.3C9774.1-3621.6,9342.1-3712.9,8836.5-3826.4z"/><path d="M115.6-3744c-8.9-6.7-15.6-140.3-15.6-294c0-354.1,35.6-447.6,189.3-516.7c95.8-42.3,140.3-44.5,852.9-37.9c734.9,6.7,752.7,6.7,819.5,55.7c120.3,86.8,142.5,164.8,142.5,505.5v302.9h-986.6C574.3-3728.4,122.3-3735.1,115.6-3744z"/><path d="M2670-3761.9c-6.7-17.8-8.9-160.4-4.4-316.2c13.4-485.5,57.9-518.9,714.9-518.9c487.7,0,543.4,11.1,645.8,131.4c60.1,71.2,60.1,75.7,60.1,405.3v331.8h-701.5C2783.5-3728.4,2681.1-3732.9,2670-3761.9z"/><path d="M4669.8-4060.3c6.7-296.2,11.1-340.7,53.4-396.4c98-133.6,138.1-140.3,795-140.3c645.8,0,688.2,6.7,795,120.3c53.5,60.1,55.7,73.5,62.3,405.3l6.7,343h-859.6h-859.6L4669.8-4060.3z"/></g></g>
</svg>