<svg id="svg" version="1.1" xmlns="http://www.w3.org/2000/svg" xmlns:xlink="http://www.w3.org/1999/xlink" width="400" height="400" viewBox="0, 0, 400,400"><g id="svgg"><path id="path0" d="M70.703 48.040 C 56.375 49.023,50.029 51.871,47.775 58.332 C 47.000 60.554,46.836 68.745,47.509 71.616 L 47.860 73.115 49.526 69.077 C 51.778 63.621,54.690 58.220,55.762 57.515 L 56.641 56.936 56.641 61.111 C 56.641 68.784,58.311 68.861,63.646 61.435 C 67.093 56.638,70.543 54.297,74.167 54.297 C 77.907 54.297,77.592 56.305,73.317 59.706 C 68.474 63.560,64.453 68.442,64.453 70.469 C 64.453 71.522,65.624 70.982,70.703 67.584 C 81.309 60.490,91.114 55.859,95.531 55.859 C 98.439 55.859,98.343 56.327,94.391 61.389 C 88.606 68.798,88.724 69.141,97.074 69.141 C 104.976 69.141,105.883 68.813,110.239 64.390 C 114.673 59.888,116.798 58.816,121.314 58.800 C 124.706 58.788,123.989 58.521,132.422 62.936 C 138.979 66.368,150.488 66.936,159.961 64.296 C 172.270 60.864,172.266 60.865,172.266 62.950 C 172.266 63.916,171.510 64.914,168.066 68.499 C 163.889 72.848,163.178 73.777,155.470 84.961 C 148.824 94.604,149.198 94.290,148.088 91.138 C 146.944 87.891,145.837 87.413,142.421 88.691 C 135.408 91.315,135.732 99.212,143.175 107.066 C 148.658 112.851,150.126 117.195,147.791 120.725 C 146.030 123.385,145.319 130.215,146.662 131.558 C 147.721 132.617,153.936 121.824,155.265 116.617 C 156.107 113.319,156.007 111.012,154.847 106.981 C 152.502 98.827,157.609 85.112,166.260 76.332 C 169.408 73.137,169.496 73.223,167.735 77.774 C 160.424 96.679,164.150 118.095,179.125 143.241 C 180.723 145.926,182.031 148.262,182.031 148.433 C 182.031 149.211,172.030 153.049,169.091 153.398 L 167.283 153.613 166.656 151.709 C 166.312 150.662,165.768 147.959,165.447 145.703 C 164.320 137.786,164.553 137.978,158.077 139.621 C 149.464 141.806,149.010 143.283,154.851 150.099 C 157.556 153.254,159.375 155.742,159.375 156.286 C 159.375 157.040,148.660 163.243,148.182 162.765 C 147.707 162.290,124.085 106.612,123.045 103.516 C 122.064 100.596,121.094 95.532,121.094 93.332 C 121.094 90.067,132.703 84.363,146.484 80.856 C 150.329 79.878,150.864 79.536,150.703 78.158 L 150.586 77.148 99.847 77.148 C 51.949 77.148,49.084 77.187,48.677 77.832 C 47.872 79.109,48.859 79.832,52.386 80.548 C 70.288 84.183,90.121 97.263,96.391 109.570 C 96.938 110.645,103.579 125.451,111.148 142.473 L 124.910 173.422 118.921 175.386 C 104.891 179.987,92.996 181.468,91.951 178.744 C 91.588 177.799,92.826 175.742,95.899 172.185 C 100.095 167.326,99.975 166.828,92.798 159.375 C 85.670 151.973,84.789 148.954,88.589 144.963 C 91.506 141.900,94.669 141.968,96.809 145.141 C 98.627 147.839,98.828 147.750,98.828 144.246 C 98.828 139.428,96.506 137.686,90.462 137.970 C 83.365 138.303,79.842 141.908,78.834 149.868 C 78.407 153.237,78.351 153.368,76.520 155.273 C 71.971 160.011,71.864 165.040,76.272 166.942 C 79.212 168.211,79.437 168.016,78.608 164.923 C 77.294 160.019,81.178 159.392,86.090 163.716 C 89.914 167.082,90.164 170.287,86.943 174.656 C 83.196 179.741,77.759 178.948,67.330 171.797 C 56.013 164.038,55.493 155.661,65.912 148.956 C 68.922 147.019,69.336 146.011,69.336 140.625 C 69.336 129.250,65.067 128.927,55.927 139.611 C 53.882 142.001,54.061 142.303,53.258 135.121 C 51.576 120.087,59.735 108.188,71.406 108.657 C 77.354 108.896,78.155 109.742,78.817 116.491 C 79.316 121.569,80.792 123.793,82.752 122.420 C 85.254 120.668,82.767 110.844,78.666 106.283 C 67.733 94.123,50.232 109.037,47.306 133.008 C 43.490 164.277,63.626 187.042,92.383 183.970 C 96.506 183.529,97.266 183.525,97.266 183.946 C 97.266 185.948,74.686 208.951,69.472 212.261 C 67.708 213.381,67.390 212.750,67.475 208.291 C 67.583 202.616,66.873 201.482,63.742 202.325 C 60.708 203.142,58.731 205.611,56.064 211.914 C 53.668 217.577,52.140 220.369,50.209 222.615 C 39.998 234.484,53.705 231.048,70.647 217.492 L 72.952 215.648 70.901 220.237 C 65.646 231.995,62.180 243.709,60.951 253.871 C 60.474 257.807,60.690 257.546,58.353 257.018 C 54.124 256.063,51.953 257.258,51.953 260.539 C 51.953 263.437,51.322 264.899,49.248 266.806 C 46.575 269.263,46.511 269.796,48.006 277.148 C 49.201 283.027,49.269 283.800,49.150 290.167 C 49.006 297.874,49.352 298.814,52.109 298.208 C 56.068 297.338,57.222 294.015,57.836 281.712 C 58.266 273.115,58.747 269.151,59.543 267.647 C 60.198 266.409,60.250 266.514,61.108 270.838 C 61.944 275.048,63.582 279.788,66.810 287.335 C 70.234 295.341,70.430 294.656,62.126 303.711 C 54.976 311.508,55.002 312.121,62.842 321.053 C 70.388 329.651,71.257 334.922,66.078 340.689 C 61.707 345.555,57.868 344.622,53.757 337.695 C 51.264 333.493,50.095 332.756,48.629 334.459 C 45.282 338.351,47.237 351.217,51.653 354.362 C 56.004 357.459,65.130 351.923,71.452 342.350 C 74.047 338.420,74.199 338.267,74.439 339.320 C 77.062 350.854,80.773 352.584,88.075 345.679 C 96.280 337.919,95.123 333.655,82.686 325.824 C 67.302 316.137,65.103 311.647,70.524 300.995 C 73.211 295.714,73.032 295.803,74.680 298.926 C 77.477 304.228,82.844 308.769,96.198 317.131 C 107.553 324.241,111.926 327.755,114.828 332.101 C 117.805 336.559,115.815 339.428,111.903 336.319 C 105.950 331.589,105.851 339.893,111.721 351.563 C 114.366 356.821,115.365 356.930,119.586 352.419 C 126.718 344.795,125.457 339.788,112.162 322.944 C 110.310 320.597,110.193 320.346,111.117 320.697 C 114.648 322.039,120.273 321.565,129.737 319.128 C 139.534 316.605,148.047 316.181,148.047 318.218 C 148.047 319.242,145.845 320.955,143.866 321.469 C 140.180 322.427,139.508 322.708,138.511 323.705 C 136.979 325.236,137.237 325.853,140.527 328.527 C 148.540 335.040,148.538 335.032,143.829 339.959 C 138.918 345.099,138.281 345.956,138.281 347.430 C 138.281 352.543,149.721 349.862,156.470 343.166 C 162.687 336.999,162.480 333.646,155.409 325.954 C 150.137 320.220,150.140 320.512,155.312 317.950 C 162.441 314.418,164.068 316.236,164.826 328.580 C 165.472 339.078,166.196 342.141,168.552 344.338 C 169.380 345.110,170.033 346.275,170.460 347.746 C 171.841 352.495,175.066 351.794,176.373 346.462 C 177.377 342.364,177.562 342.351,181.519 346.096 C 188.205 352.425,192.053 354.150,194.846 352.071 C 197.967 349.747,195.852 346.094,191.386 346.094 C 187.305 346.094,184.799 343.061,178.866 330.940 C 168.236 309.226,165.809 307.728,148.438 312.163 C 140.828 314.105,132.031 315.199,132.031 314.202 C 132.031 314.000,133.838 312.590,136.047 311.070 C 138.255 309.550,141.959 306.569,144.278 304.446 C 150.706 298.561,153.232 296.476,154.240 296.221 C 156.307 295.699,162.494 298.264,168.652 302.196 C 171.187 303.815,171.189 303.659,168.693 299.576 C 166.490 295.973,165.625 293.649,165.625 291.332 C 165.625 284.890,159.205 281.614,152.347 284.556 C 149.195 285.908,149.158 285.787,150.235 277.605 C 153.720 251.147,136.260 227.623,113.086 227.554 C 99.003 227.512,92.992 233.516,91.963 248.652 C 91.614 253.778,92.190 255.753,95.497 260.787 C 98.953 266.047,98.889 266.406,94.487 266.406 C 89.752 266.406,87.969 268.255,88.510 272.601 C 89.374 279.548,92.997 284.607,101.890 291.284 C 104.396 293.165,108.087 296.335,110.095 298.329 C 114.234 302.442,114.252 302.445,114.623 299.172 C 114.937 296.390,116.354 294.531,118.160 294.531 C 119.807 294.531,120.703 293.853,120.703 292.605 C 120.703 290.860,118.600 289.350,111.144 285.742 C 102.359 281.491,100.323 279.554,101.544 276.607 C 102.647 273.943,106.751 273.682,112.388 275.917 C 116.544 277.565,117.536 277.641,120.489 276.536 C 129.552 273.145,131.851 264.734,123.525 265.428 L 120.182 265.706 121.601 264.049 C 128.934 255.481,123.922 241.064,113.596 241.024 C 108.440 241.004,108.116 243.546,112.794 247.306 C 121.211 254.070,121.897 256.585,116.596 261.251 C 106.777 269.894,94.319 258.419,97.454 243.619 C 99.241 235.188,102.616 232.212,110.352 232.249 C 132.803 232.358,146.584 248.976,145.157 274.219 C 144.462 286.511,140.958 291.456,136.847 285.949 C 134.089 282.255,130.395 282.641,129.291 286.740 C 127.769 292.392,134.790 297.597,140.327 294.922 C 142.488 293.878,142.578 293.906,142.578 295.641 C 142.578 304.175,125.115 315.116,111.719 314.974 C 84.719 314.689,61.974 282.348,66.572 250.781 C 68.442 237.944,73.519 222.000,75.878 221.556 C 76.870 221.369,77.294 222.811,78.154 229.297 C 79.110 236.512,79.244 237.109,79.904 237.109 C 81.792 237.109,83.530 228.018,84.347 213.867 C 84.876 204.703,85.730 203.130,95.992 192.421 C 104.751 183.280,107.807 181.223,111.824 181.761 C 116.125 182.338,115.180 186.898,108.508 197.768 C 103.442 206.022,102.451 215.369,106.550 216.228 C 110.150 216.982,111.298 217.359,113.755 218.597 C 116.683 220.071,117.926 220.129,117.191 218.757 C 116.960 218.325,116.096 217.627,115.271 217.206 C 113.298 216.200,112.500 214.232,112.500 210.376 C 112.500 205.837,112.552 205.824,116.154 209.511 C 121.732 215.220,129.029 217.282,124.179 211.779 C 119.982 207.015,120.113 204.151,124.559 203.523 C 130.145 202.733,129.974 199.187,124.034 192.615 C 121.921 190.278,121.046 188.994,120.860 187.956 C 120.719 187.168,120.186 185.518,119.677 184.289 C 118.645 181.802,118.506 180.370,119.238 179.782 C 119.855 179.288,126.492 177.130,126.675 177.365 C 126.750 177.461,142.339 212.394,161.317 254.995 C 180.296 297.595,195.959 332.534,196.125 332.637 C 196.852 333.086,212.179 309.801,211.923 308.636 C 211.772 307.946,211.977 306.641,212.460 305.224 C 213.972 300.789,267.538 173.633,267.894 173.633 C 268.909 173.633,281.250 188.467,281.250 189.686 C 281.250 189.982,280.065 189.822,277.691 189.206 C 271.968 187.719,268.512 188.225,265.626 190.970 L 264.063 192.457 264.065 196.326 C 264.074 207.259,266.358 210.733,271.723 207.973 C 275.104 206.233,275.434 206.359,275.693 209.488 C 276.124 214.681,270.609 219.317,262.571 220.518 C 256.997 221.350,252.981 223.037,253.721 224.235 C 254.138 224.909,267.407 224.479,270.180 223.701 C 280.885 220.699,284.695 212.562,281.596 199.318 C 280.731 195.621,281.990 196.046,285.010 200.471 C 291.319 209.715,289.854 219.157,280.410 230.131 C 278.134 232.776,278.099 233.069,279.966 233.849 C 285.803 236.288,290.365 232.757,293.168 223.633 C 294.787 218.366,295.290 217.531,296.331 218.393 C 299.104 220.688,299.064 229.728,296.244 237.695 C 293.816 244.558,293.809 244.586,294.221 246.973 C 294.960 251.256,296.640 248.912,299.191 240.038 C 300.237 236.400,301.372 233.529,302.889 230.689 C 305.413 225.963,305.412 225.974,304.051 222.191 C 301.002 213.710,291.506 197.040,284.263 187.454 C 278.779 180.195,278.505 179.093,282.744 181.349 C 304.896 193.136,325.513 227.931,326.444 255.103 C 327.704 291.837,303.278 319.132,269.141 319.134 C 243.730 319.137,227.193 290.531,238.594 266.295 C 243.920 254.974,256.771 248.104,271.097 248.920 C 279.795 249.416,283.847 255.746,281.426 265.055 C 279.075 274.093,268.386 271.300,267.692 261.467 C 267.295 255.835,266.305 255.481,262.525 259.617 C 257.501 265.115,257.161 267.195,260.742 270.522 C 264.110 273.650,264.110 276.044,260.741 278.126 C 257.961 279.844,257.391 281.546,259.082 283.086 C 263.168 286.808,270.582 284.799,279.577 277.534 C 289.521 269.502,293.173 269.604,293.156 277.913 C 293.138 287.547,288.270 291.011,277.190 289.273 C 272.330 288.511,271.637 288.609,269.676 290.332 C 266.882 292.784,266.482 295.414,268.555 297.708 C 270.411 299.762,270.355 299.957,266.874 303.653 C 262.227 308.587,261.933 310.446,265.387 313.080 C 270.435 316.931,276.603 315.593,273.643 311.290 C 270.885 307.281,273.669 303.698,280.268 302.763 C 286.579 301.869,296.022 292.063,296.094 286.328 C 296.149 281.908,300.691 278.845,301.771 282.500 C 302.522 285.043,305.476 285.145,306.985 282.680 C 310.252 277.343,309.617 262.335,305.961 258.487 C 304.582 257.035,303.199 257.177,297.383 259.369 C 293.115 260.977,291.098 261.311,290.851 260.449 C 288.828 253.392,277.714 244.174,271.177 244.131 C 268.942 244.116,266.300 243.393,265.554 242.592 C 264.990 241.987,264.475 241.900,262.420 242.067 C 243.250 243.622,231.641 258.842,231.641 282.422 C 231.641 298.665,236.888 309.108,248.833 316.640 C 251.481 318.310,251.495 318.329,250.598 318.985 C 250.001 319.421,249.086 319.490,246.497 319.295 C 242.652 319.006,239.642 319.828,234.953 322.451 C 226.846 326.984,215.234 338.058,215.234 341.256 C 215.234 344.933,210.506 343.376,209.733 339.445 C 208.778 334.591,205.963 336.196,204.112 342.650 C 202.275 349.054,203.641 350.910,210.335 351.107 C 216.618 351.292,217.640 350.620,220.438 344.467 C 223.234 338.320,225.427 339.033,226.975 346.593 C 227.874 350.977,227.589 350.865,230.625 348.025 C 234.367 344.525,236.503 341.486,239.301 335.683 C 243.032 327.944,245.345 326.412,253.320 326.402 C 261.422 326.392,261.442 327.335,253.460 332.927 C 240.525 341.989,240.429 356.882,253.313 355.697 C 258.391 355.230,260.223 353.614,257.164 352.300 C 249.904 349.181,249.955 348.597,258.021 342.511 C 265.870 336.588,267.821 333.348,266.561 328.332 C 265.540 324.266,265.787 324.138,276.758 323.066 C 283.146 322.442,287.808 321.328,293.423 319.086 C 296.191 317.980,298.563 317.183,298.695 317.314 C 299.718 318.338,290.756 330.921,287.627 332.855 C 280.798 337.075,289.602 355.618,298.438 355.626 C 302.350 355.630,308.075 352.269,307.105 350.537 C 306.888 350.149,304.544 348.771,301.895 347.474 C 294.565 343.886,294.412 342.949,300.391 338.282 C 305.151 334.567,305.733 332.723,302.317 332.177 C 299.893 331.789,299.327 329.324,300.580 324.609 C 302.632 316.890,306.810 312.576,313.622 311.143 C 321.278 309.533,331.621 301.040,331.637 296.352 L 331.641 295.242 328.401 295.512 C 319.564 296.248,326.118 287.080,335.587 285.460 C 341.689 284.415,343.433 286.240,343.495 293.737 C 343.529 297.997,341.289 301.400,331.763 311.557 C 321.459 322.544,320.954 323.680,322.659 332.046 C 324.356 340.372,324.664 340.531,327.617 334.599 C 330.865 328.074,331.749 328.537,332.407 337.109 C 332.835 342.682,333.142 343.509,335.597 345.703 C 336.808 346.784,338.116 348.513,338.997 350.195 C 340.692 353.431,342.840 354.880,345.301 354.449 C 355.837 352.603,362.100 334.674,353.145 331.991 C 351.252 331.424,349.919 332.027,346.535 334.977 C 343.665 337.480,343.554 337.480,341.992 334.962 C 338.802 329.817,340.554 320.628,347.656 305.248 C 352.460 294.846,352.736 293.475,351.009 288.584 C 348.013 280.094,338.735 273.439,333.208 275.816 C 330.641 276.921,330.731 277.163,331.223 270.445 C 332.437 253.900,333.840 251.109,340.064 252.867 C 344.260 254.052,345.226 254.122,346.985 253.367 C 354.847 249.993,354.633 233.648,346.680 230.026 C 342.316 228.038,340.659 229.330,338.502 236.403 C 336.162 244.077,335.495 243.552,326.756 227.140 C 324.241 222.418,320.778 215.918,319.060 212.695 C 317.342 209.473,315.016 205.605,313.893 204.102 C 309.271 197.918,310.075 197.602,319.026 202.087 C 327.771 206.468,332.246 207.048,338.995 204.675 C 355.301 198.945,361.297 176.712,347.780 172.106 C 340.081 169.483,337.370 174.364,342.627 181.384 C 344.861 184.367,345.099 184.898,344.931 186.523 C 344.699 188.761,340.398 192.188,337.822 192.188 C 336.537 192.188,335.949 191.828,333.336 189.446 C 328.390 184.937,327.949 184.999,323.440 190.841 C 318.342 197.444,317.721 197.580,309.961 193.777 C 300.883 189.328,282.812 176.467,282.813 174.454 C 282.813 173.656,285.155 173.053,288.281 173.046 C 318.817 172.978,343.693 160.828,352.552 141.655 C 357.337 131.298,356.980 115.390,351.723 104.735 C 340.808 82.608,308.829 88.714,307.510 113.177 C 307.055 121.633,311.880 118.636,313.217 109.634 C 314.560 100.588,321.804 95.892,330.843 98.207 C 336.046 99.540,335.795 100.147,328.830 103.073 C 324.642 104.832,319.804 111.836,321.563 113.594 C 322.477 114.508,324.155 114.081,326.737 112.276 C 333.615 107.468,337.907 107.979,342.520 114.158 C 348.074 121.597,346.085 125.605,338.206 122.852 C 334.644 121.607,333.491 121.624,331.376 122.949 C 329.039 124.415,328.978 125.055,330.830 128.754 C 336.576 140.234,332.752 156.341,323.145 161.128 C 318.955 163.216,313.090 163.882,311.731 162.423 C 308.078 158.502,310.252 153.948,318.069 149.140 C 323.076 146.061,323.575 145.417,323.335 142.359 C 322.823 135.845,319.026 132.712,314.844 135.352 C 311.707 137.331,310.481 136.489,310.123 132.107 C 309.905 129.437,309.767 129.059,308.646 128.058 C 304.159 124.049,294.304 133.460,296.938 139.239 C 297.631 140.761,297.943 140.471,298.835 137.476 C 300.107 133.205,301.287 132.474,304.531 133.947 C 307.705 135.389,309.183 139.525,307.502 142.260 C 307.064 142.972,306.584 144.213,306.435 145.018 C 306.224 146.156,305.761 146.779,304.351 147.819 C 297.487 152.885,297.328 159.549,304.004 162.413 C 309.814 164.905,294.942 169.847,281.323 169.949 C 276.095 169.988,270.025 168.249,270.433 166.828 C 270.670 166.003,296.128 105.456,297.642 102.118 C 303.610 88.956,313.550 82.834,333.112 80.272 C 335.436 79.968,336.274 79.093,335.546 77.732 C 334.932 76.585,262.683 76.683,261.959 77.832 C 261.167 79.088,262.147 79.803,265.855 80.676 C 285.075 85.197,287.987 91.118,280.352 110.156 C 270.863 133.820,267.576 141.402,260.739 155.403 L 258.386 160.220 255.755 157.810 C 252.749 155.055,252.687 154.857,254.340 153.296 C 255.739 151.974,255.781 149.058,254.491 142.824 C 252.837 134.830,251.845 134.982,248.447 143.750 C 245.916 150.281,245.736 150.567,244.073 150.705 C 241.256 150.940,230.703 147.696,230.860 146.643 C 230.889 146.448,232.839 143.880,235.193 140.935 C 247.705 125.283,252.486 114.508,251.157 104.952 C 250.558 100.646,250.810 100.071,252.662 101.525 C 253.454 102.147,254.541 102.782,255.078 102.936 C 257.469 103.625,258.283 105.583,257.048 107.677 C 255.439 110.404,255.871 111.844,259.646 116.331 L 261.719 118.794 261.719 121.734 C 261.719 125.210,262.190 125.381,263.672 122.443 C 265.062 119.689,265.019 115.204,263.558 110.368 C 261.798 104.546,262.103 101.711,264.844 98.437 C 269.805 92.512,266.580 85.482,258.463 84.528 C 255.625 84.194,253.575 82.989,252.554 81.055 C 252.101 80.195,248.704 75.744,245.006 71.163 C 241.307 66.582,238.281 62.671,238.281 62.471 C 238.281 61.942,238.378 61.962,244.338 63.738 C 254.085 66.643,260.076 66.012,270.176 61.019 C 276.496 57.896,279.028 57.281,280.772 58.448 C 281.357 58.840,282.363 59.446,283.008 59.795 C 283.652 60.145,284.418 60.914,284.709 61.505 C 285.651 63.421,292.400 65.756,300.001 66.797 C 309.199 68.056,309.845 64.121,301.458 57.912 C 297.984 55.340,298.407 54.707,304.277 53.694 C 309.042 52.871,311.647 53.352,313.732 55.437 C 315.237 56.942,315.399 57.468,315.841 62.262 C 316.253 66.726,317.367 67.318,323.558 66.364 C 328.143 65.657,328.522 65.117,326.758 61.802 C 325.175 58.828,325.647 56.505,328.235 54.531 C 332.557 51.234,336.941 54.405,342.765 65.039 C 345.284 69.639,344.826 69.569,347.846 65.813 C 351.547 61.211,351.714 61.286,350.903 67.188 C 349.672 76.147,351.377 83.131,354.454 81.729 C 357.329 80.419,358.604 62.923,356.264 56.882 C 353.288 49.199,347.917 47.653,324.219 47.660 C 298.009 47.668,288.971 49.131,267.188 56.888 C 258.168 60.100,252.413 59.667,242.441 55.028 C 222.394 45.702,211.328 45.392,181.985 53.334 C 156.356 60.270,155.401 60.306,131.445 55.231 C 95.192 47.550,97.797 47.968,85.352 47.838 C 79.766 47.780,73.174 47.871,70.703 48.040 M212.871 54.720 C 215.347 55.251,215.356 55.700,212.940 58.117 C 210.073 60.983,209.146 61.247,206.386 59.984 C 202.449 58.181,200.709 56.433,202.037 55.612 C 203.879 54.474,209.548 54.007,212.871 54.720 M187.794 61.644 C 187.684 62.462,186.414 65.670,184.971 68.773 C 179.849 79.786,178.468 85.454,179.223 92.368 C 180.815 106.946,188.166 119.458,202.227 131.521 L 205.040 133.934 201.641 136.454 C 197.793 139.306,191.492 143.452,188.257 145.261 L 186.084 146.476 183.294 141.695 C 166.289 112.560,164.557 83.816,178.726 65.891 C 182.484 61.136,188.223 58.449,187.794 61.644 M223.049 60.779 C 232.614 63.620,238.754 84.457,234.115 98.338 C 230.873 108.039,220.750 121.297,210.210 129.645 L 208.684 130.854 205.026 127.038 C 190.276 111.653,182.047 94.287,183.596 81.817 C 185.770 64.325,203.210 56.842,207.811 71.428 C 210.004 78.381,208.598 80.005,202.688 77.344 C 195.854 74.267,192.838 76.301,192.845 83.984 C 192.848 88.424,196.186 98.438,197.663 98.438 C 198.308 98.438,200.108 95.862,201.756 92.581 C 204.168 87.779,208.813 83.656,210.223 85.066 C 210.461 85.305,210.568 87.022,210.487 89.315 C 210.321 94.027,209.339 96.324,205.839 100.186 C 202.836 103.500,202.830 103.472,207.617 107.920 C 210.096 110.224,210.454 110.754,211.443 113.595 C 213.291 118.902,213.944 118.828,215.613 113.127 C 216.446 110.280,217.133 108.814,218.417 107.138 C 221.900 102.592,222.113 100.739,219.371 98.852 C 217.273 97.409,216.372 96.006,215.090 92.184 C 214.136 89.340,212.453 82.422,212.714 82.422 C 212.786 82.422,215.020 83.872,217.679 85.645 C 224.331 90.078,225.000 90.444,225.000 89.658 C 225.000 89.316,225.477 88.120,226.061 86.999 C 228.568 82.181,226.006 73.903,221.671 72.814 C 221.011 72.649,220.076 72.996,218.414 74.021 C 214.773 76.269,213.688 75.444,213.678 70.424 C 213.662 62.779,217.272 59.063,223.049 60.779 M242.889 74.626 C 246.729 80.935,249.219 87.816,249.219 92.118 C 249.219 105.383,241.940 122.360,228.465 140.525 L 225.744 144.194 224.493 143.404 C 221.659 141.616,216.481 137.814,214.745 136.247 L 212.889 134.570 216.640 131.445 C 235.463 115.767,243.454 98.018,240.590 78.257 C 239.448 70.381,239.885 69.691,242.889 74.626 M216.540 142.188 C 220.307 144.658,223.401 146.803,223.414 146.955 C 223.427 147.106,220.746 150.533,217.457 154.572 C 214.168 158.610,209.710 164.143,207.550 166.868 L 203.623 171.823 196.103 161.086 C 191.967 155.181,188.647 150.300,188.725 150.241 C 188.803 150.182,191.416 148.695,194.531 146.937 C 197.646 145.178,202.217 142.350,204.688 140.651 C 207.158 138.952,209.294 137.592,209.434 137.629 C 209.574 137.665,212.772 139.717,216.540 142.188 M234.422 153.027 C 238.803 155.446,240.615 156.649,240.619 157.141 C 240.631 158.578,239.470 160.450,236.567 163.672 C 230.500 170.407,230.308 174.219,236.037 174.219 C 239.880 174.219,242.764 171.880,245.382 166.638 C 247.466 162.465,247.817 162.104,249.768 162.133 C 251.977 162.165,256.055 163.697,256.055 164.496 C 256.055 165.064,226.887 225.846,226.703 225.661 C 226.660 225.618,227.074 224.089,227.623 222.264 C 230.418 212.979,227.613 204.966,220.006 200.502 C 218.424 199.573,217.188 197.940,217.188 196.779 C 217.188 195.686,211.315 183.567,209.187 180.268 C 206.564 176.201,206.398 177.000,211.244 170.356 C 214.391 166.042,227.700 149.652,228.080 149.621 C 228.163 149.615,231.017 151.147,234.422 153.027 M188.598 157.731 C 190.598 160.676,194.184 165.927,196.566 169.399 L 200.898 175.711 199.157 178.383 C 194.943 184.848,192.298 191.984,191.940 197.852 C 191.675 202.184,191.561 202.514,189.102 206.061 C 183.261 214.487,182.788 218.521,186.925 224.609 C 188.845 227.434,190.624 231.197,190.625 232.433 C 190.625 232.976,190.918 233.838,191.275 234.349 L 191.926 235.277 192.643 234.392 C 193.080 233.853,193.359 232.876,193.360 231.890 L 193.360 230.273 195.252 233.455 C 196.293 235.204,198.132 237.906,199.337 239.458 L 201.530 242.279 197.347 247.737 C 191.561 255.287,192.004 254.560,192.511 255.672 C 193.378 257.575,195.913 255.840,200.952 249.891 L 204.443 245.770 207.943 249.467 C 209.868 251.501,211.750 253.556,212.126 254.034 C 212.795 254.884,212.710 255.121,208.353 264.659 C 200.246 282.402,199.473 284.004,199.172 283.700 C 198.701 283.224,163.480 200.229,160.337 192.188 C 158.783 188.213,155.894 181.182,153.916 176.563 C 151.939 171.943,150.237 167.963,150.134 167.716 C 150.029 167.464,150.923 166.822,152.185 166.244 C 153.416 165.681,156.495 164.080,159.027 162.688 C 164.569 159.640,164.254 159.662,165.012 162.271 C 166.258 166.556,174.300 173.828,177.793 173.828 C 180.298 173.828,176.034 162.574,172.639 160.227 C 170.995 159.091,170.703 158.316,171.777 157.939 C 173.196 157.442,181.372 153.861,182.746 153.135 C 184.817 152.041,184.639 151.901,188.598 157.731 M205.612 183.414 C 217.202 204.150,217.188 217.431,205.559 236.115 L 204.414 237.955 203.233 236.458 C 199.289 231.454,195.508 224.460,194.371 220.061 C 192.194 211.645,195.947 195.261,202.792 183.298 C 204.124 180.970,204.249 180.976,205.612 183.414 M220.638 229.561 C 221.692 231.626,222.893 232.085,223.896 230.808 C 224.941 229.477,224.062 231.468,219.081 241.713 L 215.039 250.027 211.572 246.205 C 207.237 241.424,207.361 242.147,210.166 238.054 C 214.222 232.135,215.842 228.781,217.226 223.438 L 217.681 221.680 218.743 224.805 C 219.327 226.523,220.179 228.664,220.638 229.561 " stroke="none" fill="#f9f9f9" fill-rule="evenodd"></path><path id="path1" d="M0.000 200.000 L 0.000 400.000 200.000 400.000 L 400.000 400.000 400.000 200.000 L 400.000 0.000 200.000 0.000 L 0.000 0.000 0.000 200.000 M335.156 47.652 C 349.068 48.248,353.324 49.923,356.007 55.859 C 359.047 62.585,357.901 81.015,354.388 81.897 C 351.047 82.735,349.622 76.881,350.780 67.078 C 351.401 61.818,351.387 61.809,348.417 65.505 C 347.069 67.182,345.759 68.785,345.506 69.065 C 345.139 69.471,344.555 68.701,342.670 65.336 C 337.022 55.250,333.240 52.062,329.324 54.088 C 326.185 55.711,325.327 58.858,327.153 62.052 C 329.010 65.299,327.952 66.264,322.079 66.678 C 316.517 67.071,316.050 66.679,315.599 61.245 C 315.103 55.275,313.298 53.665,307.227 53.774 C 299.205 53.919,298.150 55.122,302.846 58.770 C 307.458 62.354,308.726 65.143,306.429 66.648 C 303.440 68.607,285.837 64.732,284.751 61.877 C 284.564 61.383,283.919 60.680,283.318 60.316 C 282.718 59.952,281.723 59.307,281.108 58.884 C 279.144 57.533,276.584 58.059,270.602 61.044 C 260.431 66.119,254.057 66.809,244.244 63.894 C 241.400 63.049,238.966 62.466,238.834 62.598 C 238.702 62.730,241.732 66.761,245.566 71.556 C 249.401 76.351,252.804 80.801,253.129 81.445 C 253.859 82.897,256.665 84.375,258.689 84.375 C 266.093 84.375,270.062 92.803,265.243 98.292 C 262.251 101.700,262.056 103.479,263.877 110.757 C 265.525 117.342,265.504 119.275,263.744 122.719 C 262.223 125.694,261.851 125.551,261.640 121.914 C 261.470 118.967,261.376 118.697,259.929 116.994 C 255.663 111.973,255.188 110.667,256.653 107.985 C 257.921 105.665,257.437 103.918,255.335 103.225 C 254.524 102.958,253.289 102.303,252.590 101.770 L 251.318 100.800 251.327 107.138 C 251.343 117.891,247.349 126.319,234.995 141.601 L 230.890 146.679 232.205 147.353 C 234.510 148.536,239.420 150.026,242.055 150.343 C 245.382 150.744,245.635 150.509,247.627 145.155 C 251.921 133.613,253.950 134.317,255.529 147.898 L 256.002 151.970 254.523 153.485 L 253.043 155.000 254.721 156.627 C 255.643 157.523,256.860 158.584,257.425 158.986 L 258.451 159.717 263.189 149.878 C 267.262 141.419,273.335 127.141,280.500 109.180 C 283.866 100.741,285.036 94.422,283.822 91.242 C 282.071 86.657,274.292 82.524,263.195 80.284 C 261.838 80.009,261.144 78.809,261.720 77.732 C 262.135 76.956,262.456 76.950,298.941 77.049 L 335.742 77.148 335.843 78.125 C 336.017 79.800,335.462 80.063,329.661 81.054 C 312.250 84.030,304.501 88.990,298.535 100.977 C 293.475 111.145,270.629 166.948,271.320 167.454 C 274.169 169.537,279.479 170.280,286.399 169.563 C 300.159 168.138,308.279 164.516,302.975 162.170 C 297.348 159.681,297.671 152.915,303.646 148.095 C 305.546 146.562,306.250 145.742,306.250 145.061 C 306.250 144.547,306.700 143.265,307.250 142.213 C 309.258 138.374,306.511 133.600,302.294 133.595 C 300.513 133.593,300.119 134.078,299.046 137.593 C 298.042 140.881,297.385 141.177,296.562 138.710 C 295.046 134.162,300.825 126.953,305.986 126.953 C 309.059 126.953,310.540 129.005,310.545 133.273 C 310.549 136.476,311.563 136.922,314.729 135.110 C 319.231 132.535,322.970 135.643,323.693 142.562 C 323.988 145.387,323.247 146.292,318.075 149.427 C 310.748 153.869,308.742 157.644,311.491 161.816 C 312.740 163.711,318.655 163.163,323.511 160.704 C 332.618 156.093,336.094 140.411,330.581 128.808 L 328.771 124.999 329.717 123.985 C 332.094 121.439,333.753 121.123,337.605 122.479 C 345.146 125.136,347.668 122.171,343.358 115.716 C 338.206 108.001,333.934 107.347,325.978 113.053 C 324.904 113.823,323.706 114.453,323.315 114.453 C 317.833 114.453,323.299 104.886,330.313 102.208 C 335.617 100.182,335.143 98.960,328.699 98.045 C 320.017 96.813,314.489 101.417,313.267 110.900 C 312.217 119.051,306.505 120.979,307.210 112.944 C 307.986 104.107,313.238 96.175,320.661 92.630 L 323.633 91.211 329.297 91.226 C 342.562 91.260,350.959 97.993,354.478 111.415 C 363.474 145.723,337.919 170.935,292.020 173.036 C 284.592 173.376,282.660 173.758,283.063 174.807 C 283.853 176.866,302.065 189.608,309.811 193.521 C 317.525 197.417,318.181 197.262,323.621 190.250 C 327.862 184.784,328.603 184.737,333.908 189.605 C 337.428 192.836,338.871 192.875,342.334 189.835 C 345.484 187.069,345.583 185.673,342.880 182.152 C 338.981 177.074,338.560 175.180,340.792 172.748 C 343.898 169.363,351.374 172.015,354.198 177.504 C 359.925 188.633,347.502 205.255,332.791 206.147 C 328.557 206.404,326.665 205.877,319.032 202.314 C 310.212 198.196,309.971 198.239,313.601 203.285 C 316.563 207.404,316.568 207.414,323.047 219.727 C 335.709 243.793,335.748 243.835,338.328 236.166 C 340.748 228.975,342.619 227.708,347.296 230.094 C 353.722 233.372,355.091 245.859,349.664 251.695 C 347.440 254.087,344.709 254.503,340.297 253.120 C 337.193 252.147,335.853 252.140,334.991 253.092 C 333.333 254.924,331.813 262.648,331.381 271.427 L 331.125 276.642 332.824 275.775 C 339.168 272.539,350.147 281.445,351.929 291.272 C 352.506 294.455,351.897 296.545,347.801 305.427 C 340.607 321.029,338.964 330.060,342.382 335.225 C 343.507 336.924,344.095 337.067,345.152 335.899 C 353.468 326.710,361.498 334.383,355.762 346.037 C 351.109 355.490,341.911 357.487,338.490 349.788 C 338.009 348.705,337.048 347.299,336.356 346.663 C 335.663 346.028,334.683 345.133,334.177 344.674 C 332.964 343.574,332.471 341.594,332.070 336.216 C 331.504 328.640,330.905 328.440,327.734 334.766 C 324.674 340.870,324.337 340.774,322.690 333.332 C 320.528 323.566,320.679 323.210,332.226 310.742 C 342.170 300.007,343.578 297.645,343.269 292.223 C 342.893 285.618,340.051 283.984,333.013 286.326 C 324.866 289.037,320.973 296.765,328.500 295.284 C 332.374 294.522,332.964 296.025,330.388 300.099 C 327.655 304.421,317.569 311.328,313.991 311.328 C 312.455 311.328,308.941 312.724,307.077 314.074 C 302.119 317.666,297.933 330.810,301.442 331.766 C 301.831 331.872,302.629 332.066,303.217 332.196 C 305.741 332.757,305.012 335.057,301.462 337.736 C 294.607 342.910,294.724 344.201,302.347 347.461 C 307.594 349.705,308.514 351.049,306.114 352.963 C 302.716 355.674,298.201 356.532,294.993 355.077 C 287.173 351.528,281.807 335.561,287.452 332.642 C 290.017 331.315,299.632 318.251,298.716 317.336 C 298.626 317.245,296.666 317.977,294.362 318.961 C 288.119 321.628,283.280 322.680,272.129 323.795 C 267.426 324.265,266.221 324.892,266.559 326.695 C 267.925 333.991,266.710 336.238,257.721 343.034 C 251.542 347.705,250.785 349.272,254.030 350.672 C 261.013 353.686,260.497 355.443,252.539 355.749 C 239.261 356.261,240.606 341.236,254.688 331.751 C 261.032 327.477,260.846 326.758,253.398 326.758 C 245.002 326.758,242.646 328.349,239.300 336.283 C 237.578 340.365,235.224 343.724,231.397 347.559 C 227.443 351.521,227.619 351.532,226.863 347.271 C 225.406 339.050,223.753 338.578,220.257 345.384 C 217.646 350.467,216.570 351.318,212.526 351.502 C 203.990 351.890,201.919 349.841,203.840 342.912 C 205.629 336.461,208.831 334.212,209.806 338.722 C 210.926 343.906,213.821 344.666,215.378 340.185 C 216.931 335.715,229.043 325.108,237.109 321.155 L 240.820 319.336 245.801 319.199 C 251.663 319.038,251.914 318.778,248.340 316.576 C 239.264 310.986,233.034 301.060,231.683 290.039 C 228.868 267.067,238.669 247.687,255.479 242.984 C 259.043 241.988,265.625 241.445,265.625 242.149 C 265.625 242.870,267.873 243.621,270.898 243.910 C 277.958 244.585,290.625 254.319,290.625 259.068 C 290.625 261.352,291.518 261.325,298.127 258.845 C 302.645 257.149,304.941 256.994,306.136 258.301 C 311.363 264.017,309.957 284.766,304.343 284.766 C 302.890 284.766,301.563 283.736,301.563 282.609 C 301.563 281.198,300.400 280.759,298.792 281.562 C 297.372 282.271,296.925 283.259,296.101 287.519 C 294.896 293.750,286.545 301.875,280.214 302.976 C 273.800 304.092,271.037 307.621,273.828 311.133 C 277.599 315.878,269.024 317.071,264.397 312.444 C 261.836 309.882,262.123 308.588,266.211 304.275 C 270.002 300.274,270.194 299.624,268.164 297.656 C 266.077 295.633,266.677 292.574,269.679 289.938 C 271.394 288.432,272.859 288.326,278.787 289.280 C 288.353 290.819,293.228 286.678,292.903 277.286 C 292.646 269.813,289.391 269.949,279.586 277.840 C 271.790 284.114,265.140 286.427,260.696 284.409 C 257.551 282.980,256.956 280.761,259.251 279.021 C 262.292 276.715,262.891 275.936,262.891 274.282 C 262.891 272.653,262.790 272.520,259.277 269.527 C 256.897 267.498,257.936 264.255,262.593 259.173 C 266.280 255.148,267.514 255.682,268.007 261.515 C 268.596 268.501,273.332 272.016,278.531 269.328 C 281.606 267.738,282.797 257.958,280.409 253.906 C 275.023 244.767,251.529 248.926,242.362 260.642 C 225.900 281.682,239.653 316.426,265.336 318.678 C 308.016 322.420,337.215 279.326,322.401 234.458 C 314.930 211.829,298.081 189.383,282.726 181.601 C 278.961 179.693,279.075 180.081,284.390 187.261 C 293.078 198.999,302.195 215.281,304.890 223.873 L 305.578 226.066 303.203 230.517 C 301.550 233.616,300.471 236.285,299.651 239.299 C 297.103 248.670,295.157 251.725,294.187 247.874 C 293.502 245.155,293.649 243.990,295.163 240.128 C 298.671 231.182,299.280 221.476,296.493 218.953 C 295.364 217.931,295.070 218.386,293.374 223.780 C 290.517 232.871,286.758 235.968,280.712 234.211 C 277.679 233.329,277.646 232.900,280.370 229.795 C 290.131 218.667,291.240 208.522,283.734 199.039 C 281.552 196.282,281.341 196.569,282.235 201.075 C 284.716 213.578,280.120 221.732,269.302 224.024 C 265.902 224.744,253.707 224.844,253.281 224.155 C 252.578 223.018,257.379 220.992,262.305 220.347 C 270.230 219.310,275.391 215.139,275.391 209.773 C 275.391 206.761,274.925 206.546,271.904 208.156 C 266.597 210.985,264.296 208.031,263.805 197.758 C 263.414 189.589,268.496 186.450,277.923 189.036 C 279.595 189.495,281.023 189.811,281.095 189.739 C 281.520 189.313,268.790 173.828,268.014 173.828 C 267.164 173.828,212.355 305.712,212.317 307.850 C 212.278 310.031,212.259 310.063,204.358 321.620 C 200.002 327.991,196.315 333.203,196.165 333.203 C 196.014 333.203,180.267 298.162,161.170 255.333 L 126.448 177.463 123.534 178.388 C 118.660 179.936,118.249 180.614,119.930 184.320 C 120.355 185.257,120.707 186.311,120.712 186.664 C 120.730 188.006,122.269 190.523,124.567 192.969 C 130.545 199.329,130.147 203.892,123.613 203.904 C 120.404 203.910,120.759 207.480,124.386 211.671 C 129.260 217.306,121.485 215.475,115.935 209.682 L 112.891 206.503 112.822 208.623 C 112.647 214.062,113.260 215.981,115.547 217.148 C 116.956 217.866,117.578 218.607,117.578 219.563 C 117.578 220.293,115.465 219.888,113.524 218.787 C 112.424 218.163,110.776 217.460,109.863 217.224 C 108.950 216.989,107.519 216.620,106.684 216.404 C 102.614 215.350,102.930 206.467,107.289 199.391 C 115.428 186.179,116.250 182.031,110.732 182.031 C 107.161 182.031,105.231 183.340,98.123 190.582 C 85.968 202.966,84.409 205.807,84.383 215.627 C 84.358 224.843,81.774 237.500,79.917 237.500 C 79.134 237.500,78.956 236.798,78.094 230.298 C 76.695 219.763,76.040 219.235,73.108 226.283 C 68.513 237.327,65.478 254.007,66.364 263.342 C 69.055 291.684,88.117 313.760,110.742 314.737 C 124.191 315.318,140.771 305.369,142.377 295.754 C 142.534 294.815,142.512 294.122,142.327 294.212 C 136.486 297.086,132.000 296.005,129.538 291.133 C 126.511 285.143,132.419 280.567,136.751 285.547 C 141.935 291.507,145.393 284.374,144.799 268.945 C 143.909 245.822,131.344 232.630,109.961 232.368 C 102.407 232.276,98.496 236.494,97.300 246.023 C 95.603 259.546,107.620 268.958,116.449 261.020 C 121.399 256.570,120.803 254.014,113.457 248.193 C 108.379 244.169,107.882 242.217,111.619 240.984 C 117.600 239.010,125.799 246.996,125.776 254.773 C 125.771 256.682,123.707 261.756,122.055 263.922 L 120.997 265.309 123.682 265.228 C 127.592 265.111,127.659 265.128,128.310 266.387 C 129.982 269.619,127.282 273.608,121.635 276.250 C 118.244 277.837,116.403 277.792,111.831 276.011 C 105.400 273.506,101.562 274.331,101.563 278.217 C 101.563 280.258,103.885 281.989,111.844 285.883 C 119.038 289.402,121.094 290.890,121.094 292.580 C 121.094 293.391,120.109 294.530,119.406 294.533 C 116.604 294.547,115.355 295.852,114.793 299.356 C 114.230 302.868,114.038 302.868,110.782 299.363 C 109.186 297.645,105.260 294.200,102.057 291.708 C 93.612 285.137,90.798 281.786,89.058 276.228 C 87.183 270.239,88.604 266.406,92.700 266.406 C 98.350 266.406,98.620 265.839,95.298 260.947 C 91.558 255.440,90.692 248.726,92.753 241.211 C 98.186 221.403,126.698 222.511,142.057 243.127 C 150.005 253.797,152.253 264.052,150.137 279.991 C 149.382 285.676,149.323 285.573,152.550 284.248 C 159.930 281.217,166.016 285.058,166.016 292.746 C 166.016 293.979,167.017 296.184,169.885 301.270 C 171.454 304.050,171.239 304.053,166.722 301.299 C 155.886 294.695,155.157 294.751,146.416 302.852 C 142.050 306.900,137.806 310.298,134.346 312.519 L 132.294 313.835 133.628 314.182 C 135.625 314.701,140.576 313.925,149.367 311.717 C 164.352 307.951,169.133 310.325,176.285 325.085 C 177.251 327.079,179.204 331.112,180.625 334.047 C 184.912 342.902,187.326 345.407,192.239 346.101 C 196.827 346.750,198.262 350.213,194.834 352.365 C 191.865 354.229,188.036 352.499,181.319 346.259 C 177.640 342.841,177.359 342.849,176.589 346.382 C 175.773 350.127,174.403 351.468,172.186 350.695 C 171.234 350.363,169.531 347.169,169.531 345.717 C 169.531 345.526,169.024 344.961,168.404 344.462 C 166.036 342.555,165.140 338.680,164.464 327.424 C 163.810 316.533,162.025 314.742,155.273 318.202 C 150.592 320.601,150.607 320.306,154.929 325.031 C 161.325 332.022,162.222 334.359,160.226 338.821 C 157.111 345.786,142.470 353.053,138.849 349.432 C 136.967 347.550,137.715 345.911,142.928 340.496 C 148.353 334.860,148.388 335.270,142.042 330.078 C 139.809 328.252,137.776 326.436,137.523 326.042 C 136.586 324.586,139.242 322.174,142.350 321.656 C 145.759 321.089,148.753 318.562,147.243 317.526 C 145.783 316.523,137.205 317.437,129.688 319.396 C 122.667 321.226,122.299 321.279,116.792 321.284 L 111.123 321.289 115.301 326.649 C 125.647 339.918,126.553 345.654,119.448 352.908 C 114.905 357.546,113.355 356.812,110.003 348.436 C 105.319 336.734,106.484 331.471,112.628 336.581 C 114.538 338.171,116.652 337.362,116.171 335.226 C 115.196 330.894,109.012 325.399,95.808 317.131 C 82.630 308.879,77.622 304.670,74.609 299.314 C 73.115 296.658,72.842 296.456,72.442 297.716 C 72.295 298.178,71.651 299.445,71.011 300.531 C 64.953 310.806,67.231 315.725,82.560 325.472 C 95.370 333.617,96.626 338.055,88.321 345.824 C 81.170 352.512,76.361 350.554,74.411 340.162 L 74.145 338.741 71.486 342.710 C 64.550 353.067,55.056 358.182,50.896 353.805 C 48.309 351.082,46.874 346.735,46.877 341.628 C 46.883 332.199,50.252 330.727,54.425 338.332 C 58.267 345.336,64.480 344.998,67.867 337.601 C 70.468 331.918,69.314 328.552,61.939 320.313 C 54.934 312.487,54.867 311.490,60.897 304.825 C 70.134 294.618,69.956 295.154,66.632 287.511 C 63.579 280.492,61.534 274.534,60.914 270.852 C 60.277 267.069,60.191 266.837,59.729 267.659 C 59.028 268.908,58.597 272.448,58.028 281.641 C 57.226 294.585,55.802 298.437,51.819 298.438 C 48.939 298.438,48.247 296.469,48.873 290.061 C 49.339 285.287,49.176 283.324,47.814 277.269 C 46.277 270.433,46.420 269.220,49.067 266.677 L 51.258 264.571 51.588 261.289 C 52.037 256.821,52.471 256.464,57.092 256.760 L 60.473 256.976 60.735 254.171 C 61.586 245.071,65.753 230.895,70.832 219.824 C 71.596 218.159,72.149 216.797,72.060 216.797 C 71.972 216.797,70.268 218.071,68.273 219.629 C 52.621 231.855,40.406 233.730,50.045 222.427 C 52.233 219.862,53.331 217.855,56.010 211.523 C 58.870 204.766,61.481 201.953,64.895 201.953 C 67.184 201.953,67.578 202.733,67.578 207.255 C 67.578 211.512,67.759 212.500,68.537 212.500 C 70.414 212.500,94.343 188.861,96.352 185.022 C 97.108 183.576,97.043 183.543,94.312 183.991 C 79.324 186.445,62.091 179.562,54.315 168.015 C 40.901 148.100,46.049 112.348,63.586 103.627 C 69.429 100.722,74.741 101.526,78.684 105.912 C 83.735 111.530,85.879 123.047,81.874 123.047 C 79.946 123.047,78.893 120.812,78.507 115.903 C 78.039 109.948,76.863 108.851,70.898 108.812 C 66.276 108.782,63.854 109.893,59.959 113.834 C 53.869 119.993,52.207 126.172,53.647 137.305 C 54.182 141.441,54.069 141.441,57.700 137.298 C 65.144 128.807,69.668 129.986,69.712 140.430 C 69.732 145.319,68.954 147.251,66.272 148.970 C 61.532 152.009,57.806 157.670,58.400 160.927 C 59.882 169.040,78.724 180.544,84.390 176.794 C 89.112 173.669,90.194 168.574,86.910 164.921 C 82.148 159.625,77.364 159.746,78.806 165.127 C 79.602 168.097,79.424 168.304,76.847 167.401 C 71.628 165.574,71.529 160.226,76.613 154.809 C 78.236 153.079,78.516 152.551,78.516 151.214 C 78.516 143.454,83.007 138.222,90.186 137.620 C 96.895 137.058,100.555 140.872,98.973 146.777 C 98.627 148.068,98.248 147.874,96.926 145.726 C 94.607 141.956,91.011 142.029,88.053 145.907 C 85.319 149.492,86.279 152.101,92.926 159.151 C 100.143 166.804,100.286 167.327,96.421 171.892 C 90.218 179.218,90.445 179.962,98.769 179.586 C 104.720 179.317,115.123 176.859,122.728 173.925 L 124.558 173.219 110.326 141.199 C 100.501 119.096,95.519 108.335,94.238 106.452 C 88.014 97.301,74.441 87.834,60.742 83.089 C 57.394 81.929,55.498 81.441,49.690 80.240 C 48.633 80.021,47.987 78.611,48.497 77.637 C 48.955 76.764,149.833 76.552,150.703 77.422 C 152.260 78.978,151.143 79.800,145.268 81.420 C 134.808 84.304,125.686 88.122,122.839 90.807 L 121.374 92.188 121.597 95.411 C 122.006 101.322,121.814 100.813,137.698 137.988 C 143.458 151.470,148.372 162.500,148.618 162.500 C 149.187 162.500,157.810 157.592,158.561 156.841 C 159.311 156.091,158.843 155.144,156.242 152.148 C 148.200 142.887,148.697 141.287,160.364 138.877 C 164.603 138.001,164.702 138.137,165.783 146.293 C 166.591 152.383,167.170 153.622,169.055 153.293 C 171.254 152.908,175.624 151.403,178.975 149.875 L 181.974 148.508 178.858 143.297 C 163.599 117.772,159.924 95.135,167.986 76.326 C 170.306 70.915,162.256 80.532,158.805 87.295 C 154.556 95.622,153.486 101.840,155.273 107.812 C 156.449 111.740,156.472 112.677,155.490 116.517 C 154.073 122.059,148.517 131.864,146.963 131.564 C 145.047 131.195,145.246 125.124,147.302 121.220 C 149.813 116.452,148.845 113.415,142.770 107.005 C 135.682 99.526,135.172 91.801,141.571 88.822 C 145.400 87.039,147.219 87.715,148.426 91.371 C 149.118 93.467,149.387 93.331,151.953 89.583 C 162.544 74.113,163.746 72.516,168.235 67.948 C 174.279 61.798,173.523 60.608,165.120 63.048 C 149.888 67.470,139.480 67.352,131.425 62.667 C 122.048 57.213,117.313 57.535,110.932 64.062 C 106.140 68.961,103.639 69.832,95.508 69.430 C 89.096 69.113,88.757 68.377,92.676 63.277 C 97.469 57.038,97.773 56.542,97.045 56.134 C 94.419 54.665,83.940 59.284,71.181 67.536 C 65.302 71.337,63.783 71.881,64.243 70.020 C 64.879 67.447,67.898 63.943,73.711 59.033 C 77.195 56.090,77.393 54.297,74.233 54.297 C 70.789 54.297,67.184 57.005,62.813 62.877 C 58.057 69.266,55.901 68.507,56.475 60.645 C 56.630 58.525,56.572 57.422,56.305 57.422 C 55.278 57.422,52.323 62.749,49.401 69.867 C 47.459 74.599,47.137 73.978,47.098 65.430 C 47.032 50.728,52.777 47.853,82.227 47.852 C 98.054 47.851,97.118 47.745,115.234 51.602 C 157.523 60.604,154.642 60.530,181.297 53.299 C 210.432 45.396,222.035 45.544,240.767 54.060 C 254.182 60.158,257.332 60.260,271.735 55.058 C 288.006 49.182,296.281 47.970,324.414 47.344 C 325.703 47.316,330.537 47.454,335.156 47.652 M207.227 54.541 C 201.549 55.659,201.001 55.979,202.446 57.331 C 203.689 58.492,207.729 60.547,208.770 60.547 C 210.348 60.547,214.453 57.011,214.453 55.651 C 214.453 54.876,209.439 54.106,207.227 54.541 M183.751 61.696 C 172.606 68.089,166.747 90.461,170.895 110.790 C 172.866 120.455,182.255 142.150,186.152 146.048 C 186.513 146.409,195.441 140.728,201.247 136.445 L 204.642 133.940 201.637 131.274 C 185.930 117.340,179.111 104.618,179.118 89.258 C 179.121 81.868,179.777 79.405,184.371 69.531 C 185.820 66.416,187.117 63.472,187.253 62.988 C 187.389 62.505,187.600 61.758,187.722 61.328 C 188.059 60.138,186.161 60.314,183.751 61.696 M217.200 61.573 C 215.094 63.345,214.324 65.357,214.140 69.574 C 213.893 75.217,214.838 76.169,218.359 73.828 C 221.518 71.728,224.028 72.718,226.029 76.853 C 227.848 80.614,227.233 87.741,224.885 90.089 C 224.605 90.369,218.904 86.954,215.628 84.542 C 212.611 82.320,212.693 82.158,214.051 87.647 C 215.611 93.956,217.042 96.904,219.325 98.513 C 222.246 100.572,222.206 102.587,219.162 106.529 C 217.223 109.041,216.548 110.481,215.432 114.490 C 214.143 119.118,213.224 118.976,211.274 113.844 C 210.151 110.886,209.736 110.293,206.776 107.409 C 202.867 103.600,202.697 102.902,205.114 100.568 C 209.149 96.670,212.053 87.946,210.223 85.219 C 209.176 83.659,204.074 88.386,201.854 92.972 C 198.750 99.387,197.603 99.713,195.320 94.827 C 189.208 81.742,192.981 72.745,202.734 77.148 C 207.565 79.329,208.306 79.095,208.254 75.401 C 208.030 59.472,189.798 60.829,184.781 77.148 C 180.617 90.694,189.298 111.282,206.170 127.875 L 208.895 130.555 212.358 127.446 C 232.366 109.480,238.626 94.678,233.957 76.367 C 231.083 65.094,222.266 57.310,217.200 61.573 M240.356 74.121 C 240.482 75.356,240.871 78.389,241.221 80.859 C 243.733 98.617,232.471 120.570,213.904 134.106 C 213.037 134.738,215.626 137.097,221.941 141.427 C 226.076 144.263,225.289 144.419,228.452 140.137 C 241.766 122.116,248.096 107.676,248.699 93.945 C 248.960 88.014,248.423 85.882,244.891 78.845 C 241.245 71.579,239.959 70.240,240.356 74.121 M204.297 141.186 C 200.149 143.976,190.518 149.705,189.258 150.132 C 188.839 150.273,189.308 150.984,197.985 163.341 L 203.650 171.408 206.777 167.442 C 208.497 165.261,212.861 159.845,216.475 155.406 C 220.090 150.967,223.037 147.188,223.026 147.008 C 223.005 146.678,210.302 138.169,209.570 137.994 C 209.355 137.943,206.982 139.379,204.297 141.186 M223.828 154.958 C 217.060 163.080,213.087 168.112,209.986 172.489 L 207.046 176.639 208.159 178.261 C 211.259 182.782,216.347 193.100,217.819 197.852 C 218.055 198.612,218.855 199.464,220.099 200.278 C 227.419 205.070,230.624 212.495,228.552 219.864 C 228.289 220.798,228.141 221.631,228.223 221.713 C 228.306 221.795,234.634 208.931,242.287 193.125 L 256.200 164.387 254.174 163.478 C 249.184 161.240,248.103 161.634,245.611 166.602 C 242.649 172.506,240.480 174.209,235.914 174.215 C 230.143 174.223,230.071 170.840,235.704 164.365 C 241.978 157.154,242.017 157.523,234.528 153.340 C 231.239 151.503,228.408 150.008,228.239 150.018 C 228.069 150.028,226.084 152.251,223.828 154.958 M180.664 154.331 C 178.516 155.358,175.483 156.690,173.926 157.291 C 170.755 158.515,170.608 158.713,172.245 159.560 C 174.828 160.895,178.906 169.067,178.906 172.905 C 178.906 177.385,166.276 167.968,164.779 162.373 C 164.511 161.369,164.148 160.547,163.972 160.547 C 163.731 160.547,151.043 166.986,150.471 167.399 C 150.408 167.445,152.055 171.503,154.131 176.417 C 156.207 181.331,159.179 188.604,160.736 192.578 C 163.605 199.901,198.728 282.773,199.180 283.287 C 199.316 283.441,200.237 281.771,201.228 279.577 C 202.219 277.382,205.179 270.887,207.806 265.144 L 212.583 254.702 208.537 250.414 L 204.492 246.125 203.772 246.988 C 196.311 255.927,193.174 258.258,192.167 255.611 C 191.826 254.714,191.961 254.347,193.200 252.779 C 193.984 251.787,196.111 249.011,197.926 246.609 L 201.227 242.241 199.270 239.751 C 198.194 238.381,196.512 235.961,195.532 234.371 C 194.152 232.134,193.748 231.698,193.741 232.440 C 193.714 235.416,191.120 235.838,190.480 232.970 C 189.861 230.189,189.038 228.415,186.678 224.772 C 183.802 220.334,183.451 219.233,184.010 216.406 C 184.523 213.814,187.311 207.893,189.160 205.469 C 191.234 202.751,191.429 202.194,191.807 197.930 C 192.428 190.932,194.182 185.895,198.334 179.182 C 199.504 177.292,200.376 175.533,200.272 175.275 C 200.123 174.903,184.831 152.647,184.624 152.501 C 184.595 152.480,182.813 153.304,180.664 154.331 M203.172 183.111 C 202.088 185.235,202.044 185.156,204.307 185.156 L 206.270 185.156 205.704 184.082 C 204.294 181.407,204.083 181.326,203.172 183.111 M199.312 191.317 C 195.864 199.430,194.790 203.490,194.131 210.900 C 193.389 219.248,195.593 225.653,202.399 234.920 L 204.362 237.594 206.342 234.324 C 215.048 219.947,216.543 207.559,211.012 195.606 C 210.390 194.263,209.128 191.450,208.206 189.355 L 206.529 185.547 204.143 185.555 L 201.758 185.564 199.312 191.317 M217.007 225.048 C 215.884 229.380,213.320 234.270,209.319 239.714 L 207.836 241.732 211.399 245.676 C 213.359 247.846,215.000 249.574,215.046 249.517 C 215.239 249.279,223.438 232.016,223.438 231.848 C 223.438 231.748,223.200 231.756,222.909 231.868 C 221.896 232.257,220.004 229.440,218.842 225.812 L 217.719 222.304 217.007 225.048 " stroke="none" fill="#040404" fill-rule="evenodd"></path><path id="path2" d="M323.730 47.554 C 324.858 47.633,326.704 47.633,327.832 47.554 C 328.960 47.475,328.037 47.410,325.781 47.410 C 323.525 47.410,322.603 47.475,323.730 47.554 M170.093 66.113 L 168.945 67.383 170.215 66.236 C 171.398 65.166,171.664 64.844,171.362 64.844 C 171.295 64.844,170.724 65.415,170.093 66.113 M213.793 70.508 C 213.795 71.797,213.868 72.277,213.955 71.575 C 214.042 70.873,214.040 69.818,213.951 69.231 C 213.862 68.644,213.791 69.219,213.793 70.508 M241.538 86.719 C 241.538 88.330,241.607 88.989,241.691 88.184 C 241.775 87.378,241.775 86.060,241.691 85.254 C 241.607 84.448,241.538 85.107,241.538 86.719 M248.940 91.602 C 248.943 92.676,249.019 93.069,249.108 92.475 C 249.198 91.881,249.196 91.002,249.103 90.522 C 249.010 90.042,248.937 90.527,248.940 91.602 M305.057 91.309 L 303.711 92.773 305.176 91.427 C 306.539 90.174,306.820 89.844,306.522 89.844 C 306.457 89.844,305.797 90.503,305.057 91.309 M163.770 93.555 C 163.775 94.414,163.855 94.720,163.948 94.234 C 164.042 93.748,164.038 93.045,163.940 92.671 C 163.842 92.298,163.766 92.695,163.770 93.555 M137.216 95.703 C 137.216 96.670,137.292 97.065,137.385 96.582 C 137.478 96.099,137.478 95.308,137.385 94.824 C 137.292 94.341,137.216 94.736,137.216 95.703 M163.789 97.656 C 163.789 98.838,163.862 99.321,163.952 98.730 C 164.041 98.140,164.041 97.173,163.952 96.582 C 163.862 95.991,163.789 96.475,163.789 97.656 M264.950 117.188 C 264.950 118.154,265.026 118.550,265.119 118.066 C 265.213 117.583,265.213 116.792,265.119 116.309 C 265.026 115.825,264.950 116.221,264.950 117.188 M217.166 122.949 L 215.820 124.414 217.285 123.068 C 218.649 121.815,218.930 121.484,218.631 121.484 C 218.566 121.484,217.907 122.144,217.166 122.949 M222.266 126.367 C 221.317 127.334,220.628 128.125,220.736 128.125 C 220.843 128.125,221.707 127.334,222.656 126.367 C 223.605 125.400,224.294 124.609,224.186 124.609 C 224.079 124.609,223.214 125.400,222.266 126.367 M206.055 128.125 C 207.330 129.414,208.462 130.469,208.569 130.469 C 208.677 130.469,207.721 129.414,206.445 128.125 C 205.170 126.836,204.038 125.781,203.931 125.781 C 203.823 125.781,204.779 126.836,206.055 128.125 M310.268 132.617 C 310.271 133.691,310.347 134.084,310.437 133.491 C 310.526 132.897,310.524 132.018,310.431 131.538 C 310.339 131.057,310.265 131.543,310.268 132.617 M333.294 138.672 C 333.294 139.424,333.374 139.731,333.472 139.355 C 333.571 138.979,333.571 138.364,333.472 137.988 C 333.374 137.612,333.294 137.920,333.294 138.672 M255.580 150.586 C 255.583 151.660,255.659 152.053,255.749 151.459 C 255.839 150.866,255.836 149.987,255.744 149.506 C 255.651 149.026,255.578 149.512,255.580 150.586 M62.671 151.660 L 61.523 152.930 62.793 151.782 C 63.491 151.151,64.063 150.580,64.063 150.513 C 64.063 150.211,63.740 150.477,62.671 151.660 M343.927 154.004 L 342.383 155.664 344.043 154.120 C 344.956 153.271,345.703 152.524,345.703 152.460 C 345.703 152.164,345.363 152.460,343.927 154.004 M167.188 166.919 C 167.188 166.986,167.759 167.558,168.457 168.189 L 169.727 169.336 168.579 168.066 C 167.510 166.883,167.188 166.617,167.188 166.919 M333.203 189.258 C 333.932 190.010,334.616 190.625,334.724 190.625 C 334.831 190.625,334.323 190.010,333.594 189.258 C 332.865 188.506,332.181 187.891,332.073 187.891 C 331.966 187.891,332.474 188.506,333.203 189.258 M95.497 193.066 L 92.773 195.898 95.605 193.175 C 97.163 191.676,98.438 190.402,98.438 190.343 C 98.438 190.056,98.027 190.436,95.497 193.066 M83.984 198.633 C 82.384 200.244,81.162 201.563,81.270 201.563 C 81.377 201.563,82.774 200.244,84.375 198.633 C 85.976 197.021,87.197 195.703,87.090 195.703 C 86.982 195.703,85.585 197.021,83.984 198.633 M348.416 198.730 L 347.070 200.195 348.535 198.849 C 349.899 197.596,350.180 197.266,349.881 197.266 C 349.816 197.266,349.157 197.925,348.416 198.730 M229.018 214.648 C 229.021 215.723,229.097 216.116,229.187 215.522 C 229.276 214.928,229.274 214.049,229.181 213.569 C 229.089 213.088,229.015 213.574,229.018 214.648 M137.500 238.086 C 138.229 238.838,138.913 239.453,139.020 239.453 C 139.128 239.453,138.619 238.838,137.891 238.086 C 137.162 237.334,136.478 236.719,136.370 236.719 C 136.263 236.719,136.771 237.334,137.500 238.086 M281.739 260.352 C 281.743 261.211,281.823 261.517,281.917 261.031 C 282.010 260.545,282.007 259.842,281.909 259.468 C 281.811 259.095,281.735 259.492,281.739 260.352 M344.922 279.419 C 344.922 279.486,345.493 280.058,346.191 280.689 L 347.461 281.836 346.314 280.566 C 345.244 279.383,344.922 279.117,344.922 279.419 M108.984 297.388 C 108.984 297.455,109.556 298.026,110.254 298.657 L 111.523 299.805 110.376 298.535 C 109.307 297.352,108.984 297.086,108.984 297.388 M137.671 304.004 L 136.523 305.273 137.793 304.126 C 138.976 303.057,139.242 302.734,138.940 302.734 C 138.873 302.734,138.302 303.306,137.671 304.004 M244.922 308.325 C 244.922 308.393,245.493 308.964,246.191 309.595 L 247.461 310.742 246.314 309.473 C 245.244 308.289,244.922 308.024,244.922 308.325 M164.544 329.297 C 164.544 330.049,164.624 330.356,164.722 329.980 C 164.821 329.604,164.821 328.989,164.722 328.613 C 164.624 328.237,164.544 328.545,164.544 329.297 M142.763 340.723 L 140.039 343.555 142.871 340.831 C 145.501 338.301,145.882 337.891,145.595 337.891 C 145.536 337.891,144.261 339.165,142.763 340.723 M231.237 347.559 L 229.102 349.805 231.348 347.670 C 233.434 345.686,233.773 345.313,233.483 345.313 C 233.422 345.313,232.411 346.323,231.237 347.559 M290.234 351.294 C 290.234 351.361,290.806 351.933,291.504 352.564 L 292.773 353.711 291.626 352.441 C 290.557 351.258,290.234 350.992,290.234 351.294 " stroke="none" fill="#575757" fill-rule="evenodd"></path><path id="path3" d="M72.954 47.933 C 73.440 48.026,74.143 48.022,74.516 47.925 C 74.890 47.827,74.492 47.750,73.633 47.755 C 72.773 47.759,72.468 47.839,72.954 47.933 M308.301 47.926 C 308.677 48.024,309.292 48.024,309.668 47.926 C 310.044 47.827,309.736 47.747,308.984 47.747 C 308.232 47.747,307.925 47.827,308.301 47.926 M307.129 53.394 C 307.505 53.493,308.120 53.493,308.496 53.394 C 308.872 53.296,308.564 53.216,307.813 53.216 C 307.061 53.216,306.753 53.296,307.129 53.394 M331.348 53.394 C 331.724 53.493,332.339 53.493,332.715 53.394 C 333.091 53.296,332.783 53.216,332.031 53.216 C 331.279 53.216,330.972 53.296,331.348 53.394 M219.438 60.433 C 219.924 60.526,220.627 60.522,221.001 60.425 C 221.374 60.327,220.977 60.250,220.117 60.255 C 219.258 60.259,218.952 60.339,219.438 60.433 M68.729 63.574 L 67.383 65.039 68.848 63.693 C 70.211 62.440,70.492 62.109,70.194 62.109 C 70.129 62.109,69.469 62.769,68.729 63.574 M357.563 66.797 C 357.563 68.838,357.629 69.673,357.709 68.652 C 357.789 67.632,357.789 65.962,357.709 64.941 C 357.629 63.921,357.563 64.756,357.563 66.797 M147.168 66.298 C 147.866 66.385,149.009 66.385,149.707 66.298 C 150.405 66.212,149.834 66.141,148.438 66.141 C 147.041 66.141,146.470 66.212,147.168 66.298 M166.974 69.238 L 165.430 70.898 167.090 69.354 C 168.634 67.918,168.930 67.578,168.634 67.578 C 168.570 67.578,167.823 68.325,166.974 69.238 M95.597 69.423 C 96.290 69.509,97.521 69.510,98.331 69.426 C 99.142 69.341,98.574 69.271,97.070 69.269 C 95.566 69.267,94.903 69.336,95.597 69.423 M166.186 76.270 L 165.039 77.539 166.309 76.392 C 167.492 75.322,167.758 75.000,167.456 75.000 C 167.389 75.000,166.817 75.571,166.186 76.270 M183.310 85.156 C 183.310 86.123,183.386 86.519,183.479 86.035 C 183.572 85.552,183.572 84.761,183.479 84.277 C 183.386 83.794,183.310 84.189,183.310 85.156 M235.672 88.281 C 235.672 89.678,235.743 90.249,235.829 89.551 C 235.916 88.853,235.916 87.710,235.829 87.012 C 235.743 86.313,235.672 86.885,235.672 88.281 M267.278 92.578 C 267.278 93.330,267.359 93.638,267.457 93.262 C 267.555 92.886,267.555 92.271,267.457 91.895 C 267.359 91.519,267.278 91.826,267.278 92.578 M121.192 93.945 C 121.197 94.805,121.277 95.110,121.370 94.624 C 121.463 94.138,121.460 93.435,121.362 93.062 C 121.264 92.688,121.188 93.086,121.192 93.945 M205.469 100.195 C 204.520 101.162,203.831 101.953,203.939 101.953 C 204.046 101.953,204.911 101.162,205.859 100.195 C 206.808 99.229,207.497 98.438,207.389 98.438 C 207.282 98.438,206.418 99.229,205.469 100.195 M89.063 100.195 C 89.791 100.947,90.476 101.563,90.583 101.563 C 90.690 101.563,90.182 100.947,89.453 100.195 C 88.724 99.443,88.040 98.828,87.933 98.828 C 87.825 98.828,88.334 99.443,89.063 100.195 M154.013 102.734 C 154.013 103.701,154.089 104.097,154.182 103.613 C 154.275 103.130,154.275 102.339,154.182 101.855 C 154.089 101.372,154.013 101.768,154.013 102.734 M250.872 102.344 C 250.872 103.096,250.952 103.403,251.051 103.027 C 251.149 102.651,251.149 102.036,251.051 101.660 C 250.952 101.284,250.872 101.592,250.872 102.344 M340.430 112.109 C 341.269 112.969,342.043 113.672,342.151 113.672 C 342.258 113.672,341.659 112.969,340.820 112.109 C 339.981 111.250,339.207 110.547,339.099 110.547 C 338.992 110.547,339.591 111.250,340.430 112.109 M155.950 112.109 C 155.950 112.861,156.030 113.169,156.129 112.793 C 156.227 112.417,156.227 111.802,156.129 111.426 C 156.030 111.050,155.950 111.357,155.950 112.109 M59.745 113.574 L 58.398 115.039 59.863 113.693 C 61.227 112.440,61.508 112.109,61.209 112.109 C 61.144 112.109,60.485 112.769,59.745 113.574 M78.614 116.602 C 78.618 117.461,78.698 117.767,78.792 117.281 C 78.885 116.795,78.882 116.092,78.784 115.718 C 78.686 115.345,78.610 115.742,78.614 116.602 M83.684 119.922 C 83.684 120.674,83.765 120.981,83.863 120.605 C 83.961 120.229,83.961 119.614,83.863 119.238 C 83.765 118.862,83.684 119.170,83.684 119.922 M355.998 125.195 C 355.997 127.129,356.063 127.969,356.145 127.063 C 356.227 126.156,356.228 124.574,356.147 123.547 C 356.066 122.520,355.999 123.262,355.998 125.195 M198.047 127.857 C 198.047 127.924,198.618 128.495,199.316 129.126 L 200.586 130.273 199.439 129.004 C 198.369 127.821,198.047 127.555,198.047 127.857 M52.841 130.859 C 52.841 131.826,52.917 132.222,53.010 131.738 C 53.103 131.255,53.103 130.464,53.010 129.980 C 52.917 129.497,52.841 129.893,52.841 130.859 M90.337 137.780 C 90.931 137.870,91.810 137.868,92.291 137.775 C 92.771 137.682,92.285 137.609,91.211 137.612 C 90.137 137.615,89.744 137.691,90.337 137.780 M69.638 140.625 C 69.638 141.592,69.714 141.987,69.807 141.504 C 69.900 141.021,69.900 140.229,69.807 139.746 C 69.714 139.263,69.638 139.658,69.638 140.625 M98.945 143.750 C 98.945 144.932,99.018 145.415,99.108 144.824 C 99.197 144.233,99.197 143.267,99.108 142.676 C 99.018 142.085,98.945 142.568,98.945 143.750 M301.343 150.098 L 300.195 151.367 301.465 150.220 C 302.163 149.589,302.734 149.018,302.734 148.950 C 302.734 148.649,302.412 148.914,301.343 150.098 M91.016 157.617 C 91.744 158.369,92.429 158.984,92.536 158.984 C 92.643 158.984,92.135 158.369,91.406 157.617 C 90.677 156.865,89.993 156.250,89.886 156.250 C 89.778 156.250,90.287 156.865,91.016 157.617 M293.457 172.926 C 293.833 173.024,294.448 173.024,294.824 172.926 C 295.200 172.827,294.893 172.747,294.141 172.747 C 293.389 172.747,293.081 172.827,293.457 172.926 M94.438 179.964 C 94.924 180.057,95.627 180.054,96.001 179.956 C 96.374 179.858,95.977 179.782,95.117 179.786 C 94.258 179.790,93.952 179.870,94.438 179.964 M97.754 179.957 C 98.130 180.055,98.745 180.055,99.121 179.957 C 99.497 179.859,99.189 179.778,98.438 179.778 C 97.686 179.778,97.378 179.859,97.754 179.957 M85.844 184.261 C 86.330 184.354,87.033 184.351,87.407 184.253 C 87.780 184.155,87.383 184.079,86.523 184.083 C 85.664 184.087,85.358 184.167,85.844 184.261 M89.823 192.871 L 88.477 194.336 89.941 192.990 C 91.305 191.737,91.586 191.406,91.288 191.406 C 91.222 191.406,90.563 192.065,89.823 192.871 M320.093 194.629 L 318.945 195.898 320.215 194.751 C 320.913 194.120,321.484 193.549,321.484 193.482 C 321.484 193.180,321.162 193.446,320.093 194.629 M263.789 195.703 C 263.789 196.885,263.862 197.368,263.952 196.777 C 264.041 196.187,264.041 195.220,263.952 194.629 C 263.862 194.038,263.789 194.521,263.789 195.703 M223.633 203.516 C 224.472 204.375,225.246 205.078,225.354 205.078 C 225.461 205.078,224.863 204.375,224.023 203.516 C 223.184 202.656,222.410 201.953,222.302 201.953 C 222.195 201.953,222.794 202.656,223.633 203.516 M78.495 204.199 L 77.148 205.664 78.613 204.318 C 79.977 203.065,80.258 202.734,79.959 202.734 C 79.894 202.734,79.235 203.394,78.495 204.199 M67.278 208.984 C 67.278 209.736,67.359 210.044,67.457 209.668 C 67.555 209.292,67.555 208.677,67.457 208.301 C 67.359 207.925,67.278 208.232,67.278 208.984 M288.763 210.938 C 288.763 211.689,288.843 211.997,288.941 211.621 C 289.039 211.245,289.039 210.630,288.941 210.254 C 288.843 209.878,288.763 210.186,288.763 210.938 M47.208 229.786 C 47.405 229.983,47.982 230.079,48.490 229.999 C 49.272 229.876,49.217 229.821,48.132 229.641 C 47.356 229.512,46.992 229.570,47.208 229.786 M352.851 241.406 C 352.851 242.588,352.925 243.071,353.014 242.480 C 353.104 241.890,353.104 240.923,353.014 240.332 C 352.925 239.741,352.851 240.225,352.851 241.406 M112.988 240.894 C 113.364 240.993,113.979 240.993,114.355 240.894 C 114.731 240.796,114.424 240.716,113.672 240.716 C 112.920 240.716,112.612 240.796,112.988 240.894 M261.816 242.066 C 262.192 242.164,262.808 242.164,263.184 242.066 C 263.560 241.968,263.252 241.888,262.500 241.888 C 261.748 241.888,261.440 241.968,261.816 242.066 M203.875 246.387 C 203.437 246.966,203.441 246.997,203.900 246.587 C 204.335 246.200,204.602 246.238,205.249 246.783 C 206.053 247.459,206.053 247.459,205.311 246.582 C 204.419 245.530,204.514 245.542,203.875 246.387 M242.557 250.684 L 241.211 252.148 242.676 250.802 C 244.039 249.549,244.320 249.219,244.022 249.219 C 243.957 249.219,243.297 249.878,242.557 250.684 M209.749 251.660 C 210.707 252.681,211.542 253.516,211.605 253.516 C 211.898 253.516,211.588 253.165,209.863 251.546 L 208.008 249.805 209.749 251.660 M285.156 251.685 C 285.156 251.752,285.728 252.323,286.426 252.954 L 287.695 254.102 286.548 252.832 C 285.479 251.649,285.156 251.383,285.156 251.685 M125.481 254.688 C 125.481 255.439,125.562 255.747,125.660 255.371 C 125.758 254.995,125.758 254.380,125.660 254.004 C 125.562 253.628,125.481 253.936,125.481 254.688 M263.061 258.691 L 261.914 259.961 263.184 258.814 C 263.882 258.183,264.453 257.611,264.453 257.544 C 264.453 257.242,264.131 257.508,263.061 258.691 M309.075 269.531 C 309.075 270.283,309.155 270.591,309.254 270.215 C 309.352 269.839,309.352 269.224,309.254 268.848 C 309.155 268.472,309.075 268.779,309.075 269.531 M275.098 270.191 C 275.474 270.289,276.089 270.289,276.465 270.191 C 276.841 270.093,276.533 270.013,275.781 270.013 C 275.029 270.013,274.722 270.093,275.098 270.191 M309.075 273.438 C 309.075 274.189,309.155 274.497,309.254 274.121 C 309.352 273.745,309.352 273.130,309.254 272.754 C 309.155 272.378,309.075 272.686,309.075 273.438 M145.020 274.023 C 145.025 274.883,145.105 275.188,145.198 274.702 C 145.292 274.217,145.288 273.513,145.190 273.140 C 145.092 272.767,145.016 273.164,145.020 274.023 M330.971 274.805 C 330.974 275.879,331.050 276.272,331.140 275.678 C 331.229 275.084,331.227 274.206,331.134 273.725 C 331.042 273.245,330.968 273.730,330.971 274.805 M293.097 277.930 C 293.099 279.434,293.169 280.001,293.254 279.191 C 293.338 278.380,293.337 277.150,293.251 276.456 C 293.164 275.763,293.095 276.426,293.097 277.930 M57.903 278.906 C 57.903 279.658,57.984 279.966,58.082 279.590 C 58.180 279.214,58.180 278.599,58.082 278.223 C 57.984 277.847,57.903 278.154,57.903 278.906 M231.395 282.031 C 231.395 284.287,231.459 285.210,231.538 284.082 C 231.617 282.954,231.617 281.108,231.538 279.980 C 231.459 278.853,231.395 279.775,231.395 282.031 M234.891 283.984 C 234.891 285.381,234.962 285.952,235.048 285.254 C 235.135 284.556,235.135 283.413,235.048 282.715 C 234.962 282.017,234.891 282.588,234.891 283.984 M94.141 284.888 C 94.141 284.955,94.712 285.526,95.410 286.157 L 96.680 287.305 95.532 286.035 C 94.463 284.852,94.141 284.586,94.141 284.888 M267.188 296.607 C 267.188 296.674,267.759 297.245,268.457 297.876 L 269.727 299.023 268.579 297.754 C 267.510 296.571,267.188 296.305,267.188 296.607 M308.771 303.223 L 307.227 304.883 308.887 303.339 C 310.431 301.903,310.726 301.563,310.431 301.563 C 310.367 301.563,309.620 302.310,308.771 303.223 M78.125 304.028 C 78.125 304.096,78.696 304.667,79.395 305.298 L 80.664 306.445 79.517 305.176 C 78.447 303.992,78.125 303.727,78.125 304.028 M110.454 315.120 C 110.940 315.213,111.643 315.210,112.016 315.112 C 112.390 315.014,111.992 314.938,111.133 314.942 C 110.273 314.947,109.968 315.027,110.454 315.120 M142.090 317.079 C 142.788 317.166,143.931 317.166,144.629 317.079 C 145.327 316.993,144.756 316.922,143.359 316.922 C 141.963 316.922,141.392 316.993,142.090 317.079 M247.954 319.417 C 248.440 319.510,249.143 319.507,249.516 319.409 C 249.890 319.311,249.492 319.235,248.633 319.239 C 247.773 319.243,247.468 319.323,247.954 319.417 M252.253 326.455 C 252.955 326.542,254.010 326.540,254.597 326.451 C 255.184 326.362,254.609 326.291,253.320 326.293 C 252.031 326.295,251.551 326.368,252.253 326.455 M111.523 328.516 C 112.582 329.590,113.535 330.469,113.643 330.469 C 113.750 330.469,112.972 329.590,111.914 328.516 C 110.856 327.441,109.902 326.563,109.795 326.563 C 109.688 326.563,110.465 327.441,111.523 328.516 M332.130 335.742 C 332.134 336.602,332.214 336.907,332.308 336.421 C 332.401 335.935,332.397 335.232,332.300 334.859 C 332.202 334.485,332.125 334.883,332.130 335.742 M263.061 338.379 L 261.914 339.648 263.184 338.501 C 263.882 337.870,264.453 337.299,264.453 337.232 C 264.453 336.930,264.131 337.196,263.061 338.379 M357.528 338.672 C 357.528 339.639,357.604 340.034,357.698 339.551 C 357.791 339.067,357.791 338.276,357.698 337.793 C 357.604 337.310,357.528 337.705,357.528 338.672 M123.927 343.945 C 123.931 344.805,124.011 345.110,124.104 344.624 C 124.198 344.138,124.194 343.435,124.097 343.062 C 123.999 342.688,123.922 343.086,123.927 343.945 M177.771 343.066 C 177.863 343.120,178.639 343.779,179.496 344.531 L 181.055 345.898 179.709 344.434 C 178.968 343.628,178.192 342.969,177.983 342.969 C 177.775 342.969,177.679 343.013,177.771 343.066 M88.452 345.410 L 87.305 346.680 88.574 345.532 C 89.758 344.463,90.023 344.141,89.722 344.141 C 89.654 344.141,89.083 344.712,88.452 345.410 M203.216 347.266 C 203.216 348.018,203.296 348.325,203.394 347.949 C 203.493 347.573,203.493 346.958,203.394 346.582 C 203.296 346.206,203.216 346.514,203.216 347.266 M140.923 350.276 C 141.408 350.370,142.112 350.366,142.485 350.268 C 142.858 350.171,142.461 350.094,141.602 350.099 C 140.742 350.103,140.437 350.183,140.923 350.276 M210.050 351.454 C 210.743 351.540,211.974 351.542,212.784 351.457 C 213.595 351.372,213.027 351.302,211.523 351.300 C 210.020 351.298,209.356 351.368,210.050 351.454 M118.921 353.223 L 117.773 354.492 119.043 353.345 C 120.226 352.275,120.492 351.953,120.190 351.953 C 120.123 351.953,119.552 352.524,118.921 353.223 " stroke="none" fill="#848484" fill-rule="evenodd"></path><path id="path4" d="M56.341 62.500 C 56.341 63.252,56.421 63.560,56.519 63.184 C 56.618 62.808,56.618 62.192,56.519 61.816 C 56.421 61.440,56.341 61.748,56.341 62.500 M142.383 106.641 C 143.222 107.500,143.996 108.203,144.104 108.203 C 144.211 108.203,143.613 107.500,142.773 106.641 C 141.934 105.781,141.160 105.078,141.052 105.078 C 140.945 105.078,141.544 105.781,142.383 106.641 M202.641 185.433 C 203.127 185.526,203.830 185.522,204.204 185.425 C 204.577 185.327,204.180 185.250,203.320 185.255 C 202.461 185.259,202.155 185.339,202.641 185.433 " stroke="none" fill="#7c7c7c" fill-rule="evenodd"></path></g></svg>