<?xml version="1.0" standalone="no"?>
<!DOCTYPE svg PUBLIC "-//W3C//DTD SVG 20010904//EN"
 "http://www.w3.org/TR/2001/REC-SVG-20010904/DTD/svg10.dtd">
<svg version="1.0" xmlns="http://www.w3.org/2000/svg"
 width="614.000000pt" height="614.000000pt" viewBox="0 0 614.000000 614.000000"
 preserveAspectRatio="xMidYMid meet">
<metadata>
Created by potrace 1.11, written by Peter Selinger 2001-2013
</metadata>
<g transform="translate(0.000000,614.000000) scale(0.100000,-0.100000)"
fill="#000000" stroke="none">
<path d="M671 5887 c-6 -8 -8 -16 -5 -20 6 -6 -27 -18 -64 -22 -52 -6 -53 -17
-47 -300 12 -490 10 -715 -7 -771 -11 -35 -13 -55 -6 -62 19 -19 23 -232 22
-1142 0 -1188 -10 -1567 -40 -1597 -20 -21 -17 -76 6 -103 11 -13 20 -35 21
-49 1 -14 4 -62 7 -106 8 -116 7 -907 -1 -1065 -7 -138 -13 -183 -24 -210 -14
-32 -9 -48 18 -64 24 -14 48 -17 139 -15 13 1 26 -4 28 -9 2 -6 11 -20 22 -31
17 -21 23 -21 122 -14 127 10 1614 10 1830 1 105 -5 170 -13 194 -23 65 -27
232 -20 283 12 17 11 36 13 70 8 88 -14 142 -15 1041 -20 498 -2 1019 -6 1159
-9 l253 -6 26 -25 c37 -38 73 -32 98 17 12 24 14 54 9 171 -13 260 -14 386
-19 1377 -5 925 -9 1374 -23 2500 -8 691 -9 1286 -1 1363 5 56 3 76 -13 110
-10 23 -19 52 -19 64 0 43 -50 50 -195 27 -56 -8 -228 -14 -625 -19 -849 -11
-1097 -15 -1153 -21 -33 -3 -64 -1 -70 5 -40 32 -375 31 -415 -2 -11 -8 -67
-12 -196 -13 -184 -1 -289 12 -344 40 -27 14 -32 13 -83 -12 -37 -17 -73 -27
-114 -28 -86 -3 -112 4 -148 42 l-31 34 -23 -24 c-34 -37 -159 -57 -383 -61
-79 -1 -129 3 -160 13 -69 23 -738 27 -811 6 -55 -16 -105 -19 -178 -9 -52 7
-79 20 -104 52 -21 26 -30 28 -46 10z m4359 -221 c366 -6 499 -11 531 -21 30
-10 35 -57 54 -550 24 -649 24 -2142 -1 -2425 -2 -30 -11 -73 -20 -96 -14 -37
-14 -44 0 -78 31 -75 39 -239 51 -1046 8 -573 20 -875 34 -912 12 -33 2 -47
-40 -54 -57 -8 -1188 -3 -2469 11 -1233 14 -1874 23 -1930 29 -14 2 -36 -4
-50 -13 -19 -13 -51 -16 -155 -15 -200 1 -235 5 -236 23 0 9 -2 126 -4 261 -2
135 -6 412 -10 615 -3 204 -8 766 -10 1250 -5 1037 -9 1189 -35 1220 -14 17
-18 67 -8 100 17 60 23 282 23 885 0 560 -5 746 -20 770 -11 17 37 32 118 37
45 2 267 7 492 9 226 3 413 6 417 7 18 5 2943 -2 3268 -7z"/>
<path d="M5210 5573 c0 -2 10 -8 23 -13 45 -18 135 -16 -1993 -35 -338 -3
-662 -7 -720 -9 -58 -2 -138 -5 -178 -6 -102 -4 -105 -19 -18 -114 46 -51 50
-65 31 -117 -8 -24 -15 -47 -15 -51 0 -9 56 -26 110 -33 133 -17 202 -51 236
-117 32 -62 8 -151 -59 -210 -28 -26 -44 -29 -98 -19 -15 3 -29 61 -26 107 8
98 -27 130 -89 82 -39 -30 -53 -48 -60 -78 -4 -14 -13 -32 -21 -41 -33 -38
-47 -155 -48 -399 0 -139 2 -160 22 -200 11 -25 24 -70 28 -100 3 -30 13 -76
21 -101 8 -25 17 -66 19 -90 11 -105 16 -130 47 -198 11 -24 22 -56 25 -70 3
-14 6 -33 8 -41 2 -8 4 -25 4 -38 1 -13 16 -39 35 -58 l34 -35 -19 -42 c-26
-58 -24 -80 12 -130 21 -31 31 -58 33 -88 1 -24 14 -69 28 -99 44 -92 58 -131
63 -174 3 -22 21 -73 39 -111 35 -72 44 -97 50 -150 6 -52 36 -124 77 -187 21
-34 39 -68 40 -77 2 -45 13 -81 38 -131 46 -89 119 -314 127 -389 3 -32 19
-63 52 -101 9 -11 18 -32 20 -47 2 -15 14 -48 28 -73 36 -67 52 -122 48 -160
-3 -26 4 -48 30 -90 18 -30 36 -68 40 -85 25 -106 96 -90 130 30 8 28 17 74
20 103 12 108 42 224 66 257 4 6 22 53 40 105 18 52 45 121 61 153 15 31 25
57 22 57 -3 0 -1 6 4 13 13 15 24 60 30 116 2 24 8 52 14 63 5 10 7 18 5 18
-11 0 48 147 76 188 15 24 26 48 22 53 -3 5 4 29 15 52 13 26 22 72 26 122 4
57 11 88 25 107 11 15 22 46 25 70 3 24 18 68 34 99 28 54 36 82 45 159 3 19
12 69 21 110 34 154 43 196 51 250 4 30 8 57 9 60 1 3 5 32 9 65 4 32 10 68
12 79 4 24 16 95 19 116 1 8 5 29 8 45 4 17 9 44 12 61 2 17 15 60 28 95 13
35 25 87 27 114 9 126 0 450 -14 535 -2 14 -7 52 -11 85 -19 183 -106 346
-166 314 -24 -13 -32 -47 -33 -139 -1 -41 -4 -80 -9 -87 -20 -31 -75 22 -103
100 -14 39 -20 135 -10 182 13 61 21 83 43 113 80 107 200 63 357 -131 95
-118 119 -129 176 -80 30 26 54 37 87 41 41 4 45 3 39 -15 -4 -13 1 -26 18
-41 32 -27 26 -65 -14 -107 -30 -32 -46 -66 -55 -118 -3 -18 -8 -45 -11 -62
-3 -16 -7 -48 -9 -70 -3 -22 -7 -67 -11 -99 -16 -151 -10 -393 10 -413 11 -12
28 14 31 47 2 18 12 44 24 59 43 54 53 70 55 99 1 17 14 48 29 71 15 22 27 48
27 56 0 30 28 70 89 127 l61 57 -21 53 c-33 82 -39 109 -40 169 -2 89 19 168
52 201 27 28 29 28 54 12 14 -9 25 -21 26 -28 0 -6 2 -18 4 -26 1 -9 5 -51 9
-95 7 -99 24 -123 71 -99 17 8 50 40 73 70 49 62 62 69 152 80 109 13 181 9
225 -13 111 -57 166 -187 115 -270 -19 -31 -84 -73 -114 -73 -9 0 -22 -10 -30
-22 -21 -32 -25 -58 -41 -231 -3 -37 -8 -73 -10 -80 -2 -6 -6 -29 -9 -49 -3
-20 -13 -52 -22 -71 -9 -20 -14 -43 -11 -52 10 -25 65 -44 100 -34 45 13 67
-4 67 -51 0 -56 -27 -77 -92 -71 -28 3 -88 -27 -88 -44 0 -46 42 -78 105 -79
33 -1 40 -5 45 -26 10 -40 -6 -103 -31 -122 -19 -16 -22 -28 -23 -101 -1 -45
-5 -88 -9 -94 -21 -34 -97 4 -136 66 -25 41 -29 57 -27 110 2 75 -26 144 -61
149 -25 4 -28 -4 -23 -78 8 -126 6 -142 -17 -151 -33 -12 -117 34 -137 75 -9
19 -16 41 -16 50 0 10 -12 29 -26 43 -18 18 -26 37 -27 64 -1 48 18 71 57 69
50 -3 54 -1 51 28 -2 15 -6 54 -10 87 -4 44 -2 65 8 79 15 20 6 23 130 -47 34
-19 83 -17 130 4 35 16 34 24 -3 39 -57 24 -102 100 -103 174 0 110 29 180
116 275 36 39 76 95 90 124 13 29 30 59 39 67 48 48 19 115 -49 113 -58 -1
-97 -26 -133 -85 -18 -29 -52 -76 -75 -103 -24 -28 -50 -66 -58 -85 -8 -19
-31 -55 -51 -79 -20 -24 -54 -74 -75 -110 -61 -106 -224 -437 -236 -481 -17
-63 -29 -87 -55 -109 -20 -17 -39 -51 -57 -101 -14 -41 -32 -81 -40 -88 -7 -7
-13 -19 -14 -25 0 -7 -2 -23 -5 -37 -2 -14 -6 -38 -8 -54 -3 -16 -9 -32 -14
-35 -11 -7 -45 -71 -38 -71 16 0 -38 -138 -76 -196 -32 -47 -48 -84 -52 -115
-7 -53 -34 -137 -64 -195 -20 -39 -41 -106 -49 -154 -8 -51 -10 -65 -12 -76 0
-6 -15 -31 -31 -57 -25 -36 -32 -58 -34 -109 -3 -62 -25 -122 -52 -143 -13
-10 -24 -47 -44 -147 -8 -39 -22 -70 -44 -97 -26 -31 -36 -55 -46 -118 -7 -43
-15 -82 -16 -88 -2 -5 -5 -20 -8 -33 -10 -45 -18 -67 -47 -125 -16 -32 -31
-75 -33 -95 -6 -58 -17 -90 -31 -96 -24 -9 -83 -148 -100 -236 -2 -9 -13 -48
-24 -86 -47 -156 -66 -166 -327 -169 l-193 -1 -14 40 c-105 295 -150 401 -192
446 -14 15 -26 42 -28 65 -6 52 -26 110 -70 206 -37 80 -74 184 -83 234 -9 50
-39 108 -83 158 -48 56 -67 97 -85 183 -7 34 -25 77 -39 96 -19 25 -25 42 -21
62 3 20 -1 36 -14 50 -26 29 -97 171 -127 255 -25 69 -75 168 -123 245 -13 21
-26 53 -29 71 -3 18 -20 49 -38 69 -19 22 -35 52 -39 75 -7 43 -49 129 -74
151 -10 8 -23 35 -30 59 -8 26 -29 58 -52 80 -26 25 -39 47 -43 73 -6 37 -12
54 -68 176 -16 35 -29 65 -29 68 0 3 -42 91 -94 195 -90 180 -120 231 -157
272 -8 9 -41 66 -71 125 -31 59 -67 127 -80 152 -28 54 -111 142 -156 164 -44
22 -84 18 -88 -10 -2 -12 13 -48 33 -80 39 -64 48 -120 23 -136 -30 -19 -139
48 -183 112 -28 41 -21 91 26 182 81 157 136 162 330 26 37 -27 71 -48 76 -48
5 0 14 -7 21 -15 19 -23 39 -18 68 16 37 45 101 89 128 89 51 0 54 -69 9 -204
-27 -81 -25 -91 46 -172 22 -26 48 -59 57 -73 9 -14 19 -28 23 -31 10 -8 45
-81 58 -121 6 -19 14 -60 16 -90 5 -60 22 -79 68 -79 39 0 65 15 87 52 14 24
16 36 8 59 -5 16 -14 29 -19 29 -34 0 -45 129 -18 215 10 33 19 69 19 81 0 31
-51 102 -125 174 -105 103 -115 136 -64 213 40 60 79 93 91 75 4 -7 8 -22 8
-33 0 -10 11 -28 25 -40 18 -14 26 -33 30 -69 9 -78 38 -102 100 -81 56 20
161 132 179 193 18 61 12 131 -13 155 -17 17 -24 18 -52 8 -29 -10 -35 -9 -56
11 -35 32 -31 82 11 141 44 62 36 99 -19 87 -35 -7 -275 -16 -691 -25 -122 -3
-282 -8 -355 -11 -74 -3 -143 -5 -154 -5 -50 1 -48 18 -48 -654 -1 -719 12
-1196 33 -1235 6 -11 7 -64 3 -137 -9 -156 -9 -990 0 -1073 15 -132 18 -237
21 -755 2 -291 6 -541 10 -554 3 -13 16 -45 30 -71 29 -55 40 -128 25 -167 -6
-16 -23 -40 -39 -56 -23 -23 -28 -35 -26 -70 2 -46 20 -87 39 -88 7 0 188 0
402 1 434 2 603 5 685 16 30 3 71 8 90 11 19 2 393 6 830 8 896 5 1463 12
1500 20 49 10 107 7 161 -9 65 -18 81 -16 157 21 l57 28 313 0 c249 0 314 3
321 13 10 16 7 51 -10 112 -15 56 -27 71 -40 48 -9 -16 -12 -16 -43 -2 -18 9
-38 25 -45 37 -20 31 16 57 80 57 48 0 49 0 50 33 1 106 -2 1513 -6 2117 -7
1025 -14 1274 -39 1361 -21 73 -12 160 30 280 28 81 29 85 8 124 -18 34 -21
48 -28 114 -11 103 -17 183 -21 304 -5 152 -10 184 -34 216 -17 22 -26 24
-115 26 -53 1 -96 0 -96 -2z m-2255 -118 c42 -41 41 -44 -74 -144 l-62 -54 54
-56 c89 -93 113 -164 60 -177 -38 -10 -82 18 -120 76 -18 27 -52 62 -75 77
-72 47 -91 74 -77 110 9 25 30 33 82 31 21 -1 42 3 47 8 9 9 18 43 19 76 1 9
15 30 32 47 38 39 80 41 114 6z m1523 -18 c29 -14 28 -19 -9 -61 -35 -40 -119
-85 -164 -87 -87 -5 -97 7 -65 74 24 51 62 74 139 86 48 8 62 6 99 -12z m348
-23 c23 -13 44 -30 47 -38 5 -13 -30 -59 -100 -133 -16 -18 -14 -18 -63 29
-67 66 -79 112 -40 149 34 33 92 31 156 -7z m370 0 c105 -53 26 -127 -133
-126 -75 1 -126 25 -134 63 -6 28 11 66 33 76 37 17 191 8 234 -13z m-3197 11
c10 -3 18 -11 17 -18 -2 -7 -6 -33 -10 -59 -8 -45 -10 -48 -45 -55 -66 -13
-171 -2 -171 17 0 15 -51 32 -76 26 -14 -4 -25 -16 -29 -35 -9 -42 -38 -63
-95 -69 -47 -4 -110 11 -110 28 0 13 -76 28 -117 23 -21 -2 -49 -12 -63 -22
-14 -10 -35 -21 -47 -25 -34 -11 -101 14 -129 47 l-25 30 32 33 c67 69 185 89
250 43 33 -23 46 -24 95 -3 40 17 58 21 134 33 61 9 365 14 389 6z m1626 -55
c12 -10 15 -24 11 -52 -7 -50 -20 -72 -73 -132 -23 -26 -43 -54 -43 -61 0 -27
-91 -48 -119 -28 -76 52 84 299 186 288 12 -1 30 -8 38 -15z m-403 -25 c-2
-14 2 -45 11 -68 18 -49 19 -63 20 -257 1 -294 -10 -390 -46 -390 -33 0 -81
88 -108 200 -8 34 -13 111 -13 200 0 124 4 154 23 210 23 67 51 106 86 120 31
13 33 12 27 -15z m-263 -468 c46 -61 62 -110 49 -149 -29 -85 -196 36 -215
155 -5 35 13 74 36 80 30 7 90 -33 130 -86z m624 82 c28 -13 46 -44 41 -74
-14 -97 -31 -126 -68 -119 -57 10 -131 12 -147 3 -10 -5 -20 -17 -24 -28 -8
-25 -51 -16 -72 15 -18 28 -20 83 -4 112 19 36 75 71 137 86 74 18 106 19 137
5z m299 -158 c27 -2 46 -50 53 -137 6 -69 5 -82 -10 -94 -25 -21 -208 -24
-245 -5 -36 19 -44 42 -21 61 73 63 74 64 61 129 -10 49 6 54 162 46z m-1219
-115 c43 -18 125 -101 133 -133 6 -21 1 -31 -22 -50 -16 -12 -41 -27 -55 -33
-14 -6 -32 -22 -39 -35 -17 -32 -5 -46 73 -83 76 -37 133 -91 164 -158 27 -60
26 -81 -7 -124 -14 -18 -26 -46 -28 -63 -5 -46 -31 -95 -61 -116 -31 -22 -65
-31 -79 -22 -16 10 1 30 28 34 22 4 25 9 24 46 -1 23 -4 45 -8 48 -3 4 -32 10
-63 14 -31 4 -68 13 -80 20 -30 16 -40 54 -20 77 16 19 15 51 -4 63 -7 4 -25
6 -40 4 -60 -8 -55 52 6 93 19 12 35 28 35 35 -1 35 -35 47 -97 33 -18 -4 -33
-4 -34 1 0 4 -1 35 -2 69 -2 50 -7 66 -29 93 -16 18 -28 37 -28 42 0 26 22 47
57 52 28 5 50 19 86 57 26 27 50 50 53 50 2 0 19 -6 37 -14z m-1336 -45 c25
-21 41 -74 44 -151 4 -75 23 -145 51 -183 36 -49 48 -83 48 -137 0 -55 -13
-91 -47 -133 -13 -16 -23 -34 -23 -42 0 -16 42 -58 62 -61 8 -1 41 22 73 52
32 30 66 54 75 54 51 0 63 -79 46 -295 -11 -132 -30 -178 -75 -181 -45 -3 -51
-5 -51 -18 0 -8 -8 -17 -17 -20 -33 -13 -42 19 -36 122 6 118 5 140 -5 157
-12 22 -54 -4 -74 -45 -18 -36 -22 -135 -7 -176 22 -61 19 -90 -16 -144 -19
-29 -42 -84 -52 -121 -9 -38 -20 -69 -24 -69 -3 0 -24 17 -46 38 -28 27 -48
38 -69 38 -35 -1 -42 25 -24 90 14 49 24 54 41 23 7 -15 14 -18 21 -11 9 9 10
61 4 187 -1 30 -25 58 -114 136 -76 66 -51 122 64 141 34 6 65 17 68 24 3 7
-24 41 -58 76 -76 76 -116 133 -116 164 0 27 32 52 63 49 12 -1 29 -3 38 -4 9
0 36 -14 60 -31 49 -33 84 -38 117 -14 19 13 52 63 52 78 0 16 -37 36 -66 36
-79 0 -100 36 -103 176 -3 116 10 177 42 199 27 19 27 19 54 -4z m2163 -20 c5
-10 7 -26 5 -37 -2 -10 -4 -24 -4 -31 -2 -26 -66 -84 -124 -113 -79 -38 -175
-58 -268 -54 -121 4 -172 35 -212 126 -32 71 -23 83 60 76 40 -4 61 -11 73
-25 25 -32 58 -45 113 -44 92 0 127 12 198 68 79 62 137 74 159 34z m337 -155
c11 -19 47 -36 75 -36 33 0 48 -18 48 -58 0 -43 -16 -72 -40 -72 -41 0 -42
-47 -4 -159 21 -62 12 -81 -37 -81 -32 0 -42 5 -50 24 -23 51 -77 50 -131 -1
-26 -25 -28 -25 -52 -9 -36 23 -55 65 -62 135 -7 58 -6 61 25 89 25 23 31 35
27 56 -7 39 2 56 31 56 30 0 60 15 92 46 26 26 66 31 78 10z m-411 -206 c25
-18 41 -47 48 -86 3 -15 14 -40 24 -54 20 -27 60 -101 59 -110 0 -3 5 -21 11
-40 23 -73 23 -89 -4 -96 -33 -8 -72 3 -105 30 -38 32 -69 24 -132 -34 -53
-48 -66 -51 -98 -19 -18 18 -44 18 -94 2 -11 -4 -23 -7 -27 -8 -3 0 -10 -3
-14 -7 -11 -12 -52 -9 -60 4 -4 6 -7 48 -7 93 1 108 22 174 66 200 17 10 33
18 34 17 2 -2 19 -10 40 -18 37 -16 37 -16 63 16 16 19 39 34 60 39 26 5 39
15 52 40 26 52 45 59 84 31z m229 -430 c3 -5 9 -40 12 -77 3 -38 10 -73 17
-80 6 -6 31 -14 55 -17 49 -6 60 -17 61 -61 1 -35 22 -129 37 -165 13 -32 7
-54 -28 -88 -17 -16 -40 -58 -53 -94 -31 -86 -66 -139 -117 -180 -23 -18 -63
-52 -89 -75 -56 -51 -87 -64 -117 -50 -50 23 -41 94 22 169 25 28 46 55 46 60
1 4 3 13 4 18 1 6 3 19 4 29 2 40 49 79 106 91 46 10 56 16 61 37 18 69 -52
162 -142 188 -115 33 -156 117 -60 123 61 4 130 71 142 138 8 43 24 58 39 34z
m-617 -91 c9 -11 47 -36 85 -56 117 -62 85 -98 -95 -107 -81 -5 -131 -23 -148
-56 -16 -30 15 -75 67 -100 53 -25 149 -120 158 -157 3 -16 20 -57 36 -91 17
-35 36 -89 43 -120 11 -51 35 -83 37 -50 0 7 3 22 5 33 3 11 7 108 9 215 9
381 13 451 25 465 20 24 82 -13 100 -61 11 -29 8 -189 -7 -364 -9 -108 -9
-523 1 -700 8 -147 9 -171 22 -275 4 -38 8 -105 8 -147 1 -65 -3 -81 -22 -105
-38 -47 -65 -115 -68 -171 -5 -87 -26 -98 -47 -24 -15 54 -18 154 -21 682 l-1
375 -35 5 c-60 10 -106 39 -178 110 -74 72 -126 110 -153 110 -24 0 -43 28
-45 64 -2 52 -15 96 -29 96 -14 0 -25 30 -25 70 0 14 -9 43 -20 65 -26 51 -25
75 4 133 27 53 110 136 153 153 80 32 119 34 141 8z m1739 -52 c24 -25 -3 -68
-51 -83 -11 -4 -42 -22 -68 -41 -27 -19 -48 -33 -49 -31 -7 33 -8 49 -3 80 6
38 6 38 83 53 14 3 29 11 33 20 9 15 41 16 55 2z m673 -42 c16 -10 -6 -33 -46
-50 -40 -17 -56 -44 -56 -99 0 -78 -25 -85 -32 -9 -7 77 53 177 101 169 12 -3
27 -8 33 -11z m-386 -135 c16 -15 21 -35 22 -77 1 -34 7 -59 16 -64 7 -5 43
-9 80 -9 58 0 71 -4 100 -27 49 -41 63 -60 107 -148 55 -111 85 -229 85 -340
1 -131 -27 -181 -105 -187 -41 -4 -45 10 -14 46 51 59 55 144 10 238 -25 52
-45 88 -55 98 -10 10 -38 65 -37 72 1 4 -16 28 -37 54 -59 71 -127 91 -201 60
-49 -21 -62 -54 -46 -114 26 -95 23 -120 -19 -142 -14 -8 -25 -5 -47 14 -37
32 -89 137 -97 200 -8 57 -31 106 -50 106 -7 0 -21 -9 -32 -21 -15 -16 -19
-38 -20 -102 -1 -48 -9 -103 -19 -132 -23 -66 -74 -163 -105 -198 -13 -16 -41
-52 -61 -80 -34 -49 -38 -52 -77 -51 -48 1 -168 49 -176 71 -7 18 2 35 14 28
13 -8 63 20 98 54 58 58 85 119 87 194 2 51 8 76 23 96 11 15 36 60 56 99 68
136 228 261 356 279 19 3 37 7 39 9 11 10 88 -9 105 -26z m-3262 -174 c87 -23
205 -93 239 -142 38 -56 144 -320 156 -389 5 -31 24 -66 54 -98 30 -33 35
-121 8 -138 -6 -4 -25 -5 -41 -2 -79 12 -158 68 -158 112 0 15 -4 31 -9 37 -8
8 -50 115 -55 139 -1 6 -5 19 -8 30 -4 11 -9 40 -13 65 -3 25 -7 54 -9 65 -3
11 -5 28 -5 38 -1 20 -52 24 -96 7 -25 -10 -27 -13 -22 -58 3 -26 11 -68 17
-93 30 -123 -63 -129 -140 -9 -53 83 -142 112 -247 82 -43 -12 -68 -27 -109
-70 -30 -29 -54 -57 -54 -61 0 -7 113 -94 162 -124 22 -14 26 -22 21 -44 -11
-50 -5 -110 12 -137 19 -28 23 -47 30 -134 9 -107 21 -130 56 -111 21 11 41
43 115 188 42 81 67 119 89 132 53 33 125 19 125 -23 0 -27 -65 -146 -134
-247 -76 -110 -106 -164 -106 -193 0 -30 41 -71 67 -66 10 2 47 42 83 90 82
110 128 157 160 165 14 3 47 21 73 39 52 36 95 48 142 40 17 -2 33 -5 36 -5 3
-1 16 -10 29 -21 13 -11 34 -21 47 -21 12 -1 28 -3 33 -4 6 -1 17 -3 25 -4 23
-2 65 -47 65 -70 0 -20 -12 -26 -70 -35 -115 -17 -212 -38 -264 -56 -85 -29
-146 -67 -146 -90 0 -11 -13 -29 -29 -41 -16 -12 -27 -27 -24 -34 8 -22 55
-35 104 -30 36 3 50 0 62 -13 31 -34 5 -85 -96 -186 -88 -87 -93 -95 -116
-169 -13 -43 -30 -81 -37 -84 -8 -3 -14 -10 -14 -17 -1 -19 -49 -48 -70 -41
-14 5 -18 13 -15 38 14 137 17 162 21 168 13 22 24 193 12 204 -4 4 -23 7 -43
7 -62 0 -68 -14 -71 -164 -7 -296 -16 -361 -52 -366 -18 -3 -24 5 -38 54 -20
68 -16 216 7 252 16 25 4 54 -24 58 -26 4 -45 -34 -52 -106 -9 -94 -14 -118
-31 -159 -8 -20 -14 -47 -13 -61 3 -24 -10 -59 -53 -147 -36 -75 -166 -193
-205 -187 -7 1 -17 2 -23 3 -18 2 -31 42 -25 73 4 17 26 52 50 77 66 72 76
100 76 209 -1 120 -41 230 -113 309 -37 39 -40 47 -32 71 12 34 65 54 109 40
113 -34 162 -30 183 16 13 29 -14 66 -79 106 -33 20 -55 42 -64 64 -17 41 -57
75 -133 116 -66 35 -85 59 -76 96 19 73 167 36 298 -75 104 -88 142 -95 146
-26 3 49 1 54 -30 70 -42 22 -96 107 -125 198 -21 65 -25 98 -25 196 0 91 -3
121 -14 130 -22 19 -37 -18 -42 -106 -2 -42 -7 -80 -12 -85 -4 -4 -35 -3 -67
3 -33 6 -70 13 -82 15 -32 6 -29 32 5 36 34 4 41 39 17 84 -16 30 -16 33 4 70
15 28 19 48 15 75 -8 47 17 90 84 150 85 75 195 118 249 98 27 -10 44 8 45 50
1 29 -16 61 -32 61 -5 0 -11 -13 -15 -30 -9 -43 -35 -37 -63 16 -47 87 218
175 390 130z m3479 -413 c19 -19 11 -210 -12 -298 -6 -22 -27 -57 -46 -78 -28
-32 -34 -45 -31 -75 3 -35 5 -37 33 -34 16 2 34 7 40 11 16 13 107 41 131 41
36 0 46 -52 19 -94 -9 -13 -41 -40 -71 -60 -34 -23 -67 -57 -89 -90 -19 -29
-41 -56 -50 -59 -20 -8 -19 -31 1 -48 24 -20 94 -13 155 16 62 29 97 32 106 9
9 -24 -10 -51 -105 -150 -91 -96 -128 -152 -127 -194 0 -34 28 -37 91 -10 67
29 89 33 104 15 26 -31 -16 -139 -73 -187 l-32 -27 1 -103 c0 -104 5 -152 26
-243 13 -61 23 -82 54 -115 l24 -26 -25 -36 c-26 -38 -58 -53 -74 -34 -5 6
-18 31 -30 56 -12 25 -40 70 -63 100 -55 73 -85 141 -98 225 -6 39 -20 87 -30
107 -16 31 -19 53 -15 125 2 49 6 99 10 113 12 55 16 180 6 197 -6 12 -21 18
-43 18 -24 0 -34 5 -36 19 -5 25 13 35 58 29 32 -5 38 -2 43 17 7 27 -8 70
-25 71 -7 1 -53 2 -101 3 l-89 2 7 -70 c9 -89 8 -124 -7 -159 -10 -25 -8 -31
18 -58 21 -22 28 -38 27 -66 -3 -86 -133 -133 -133 -49 0 41 -39 99 -126 191
-138 145 -183 229 -136 254 26 14 49 6 92 -34 44 -41 74 -48 95 -25 22 24 25
50 10 80 -33 64 -211 193 -296 213 -56 14 -67 -51 -12 -65 40 -10 48 -22 27
-43 -15 -14 -19 -14 -48 2 -37 22 -76 94 -76 141 0 22 -8 40 -25 56 -44 41
-34 49 84 61 30 4 68 13 84 22 29 15 30 14 66 -25 20 -21 47 -42 61 -46 62
-18 82 -32 114 -80 47 -71 60 -80 113 -79 62 1 69 12 34 56 -36 46 -91 211
-108 322 -11 78 -10 90 9 112 17 18 24 20 49 11 77 -27 122 -138 134 -330 6
-96 33 -142 67 -112 20 19 37 93 43 189 4 61 8 85 21 154 1 8 17 42 34 77 41
84 104 124 141 87z m-1607 -115 c17 -24 10 -52 -34 -133 -43 -79 -81 -133
-120 -170 l-31 -30 -19 24 c-23 32 -19 91 11 132 12 17 24 50 26 73 10 102
120 171 167 104z m-713 3 c61 -28 155 -114 169 -156 6 -19 20 -37 31 -40 10
-4 20 -14 20 -23 4 -41 -3 -78 -15 -91 -12 -12 -21 -10 -61 9 -48 23 -165 129
-165 148 0 6 -16 37 -35 69 -37 61 -43 88 -22 96 22 9 34 7 78 -12z m1177
-596 c32 -27 52 -32 52 -14 0 19 33 38 67 39 21 0 41 -9 61 -27 16 -16 40 -36
54 -45 16 -10 30 -35 38 -65 8 -26 34 -79 58 -118 57 -89 174 -208 196 -199 9
3 23 1 31 -6 31 -26 -42 -109 -78 -88 -9 5 -17 17 -17 26 -1 30 -35 63 -70 69
-48 7 -77 24 -148 83 -71 59 -151 161 -159 202 -3 16 -14 33 -25 39 -59 32
-92 -49 -57 -141 46 -120 138 -223 210 -233 13 -2 28 -13 34 -25 6 -13 25 -25
51 -31 23 -6 73 -32 111 -57 86 -58 117 -74 142 -74 11 0 31 -12 45 -26 13
-15 35 -28 49 -28 34 -2 57 -24 57 -53 0 -37 -55 -57 -108 -39 -66 24 -151 9
-214 -36 -30 -20 -30 -21 -10 -40 17 -18 36 -20 197 -22 101 -1 180 -6 182
-12 9 -24 23 -37 44 -39 87 -11 159 -48 229 -117 41 -41 100 -137 106 -173 1
-5 5 -22 9 -38 9 -33 -2 -34 -36 -3 -75 70 -171 106 -267 102 -70 -2 -115 -20
-154 -59 -56 -55 -157 -76 -178 -37 -14 27 -6 81 15 96 9 7 19 30 22 52 11 83
-58 107 -142 50 -51 -36 -70 -65 -110 -175 -30 -82 -65 -126 -92 -117 -50 18
-56 82 -17 189 49 135 58 173 44 190 -32 39 -91 9 -150 -78 -44 -63 -169 -146
-214 -140 -18 3 -37 -4 -57 -22 -17 -14 -39 -25 -50 -25 -11 0 -43 -13 -72
-29 -55 -31 -113 -48 -185 -54 -34 -3 -46 0 -57 15 -41 60 30 136 200 217 247
118 382 188 403 209 47 49 19 77 -78 81 -63 2 -81 15 -86 62 -6 49 -14 71 -34
94 -24 28 -33 62 -19 71 19 11 76 6 108 -11 17 -8 58 -36 93 -63 121 -91 271
-131 291 -77 23 58 -102 188 -165 171 -24 -6 -60 11 -103 48 -16 15 -72 47
-122 72 -111 55 -116 67 -62 152 16 26 27 53 24 60 -3 8 4 29 15 47 13 21 22
57 25 102 10 132 19 144 73 98z m-1700 -81 c54 -35 3 -84 -92 -88 -55 -3 -106
16 -123 43 -17 27 -1 42 58 55 63 15 125 11 157 -10z m116 -147 c10 -7 20 -26
21 -43 2 -16 7 -57 11 -91 5 -45 3 -67 -6 -78 -19 -23 -36 -18 -79 25 -22 22
-42 40 -45 40 -17 0 -40 -58 -42 -108 -1 -31 -3 -63 -3 -70 -1 -18 -44 -53
-108 -88 -79 -43 -85 -56 -45 -97 31 -32 36 -34 100 -32 107 4 284 72 296 115
2 8 7 27 10 41 7 32 50 79 72 79 15 0 16 -8 10 -71 -7 -74 -25 -123 -50 -132
-8 -3 -20 -24 -27 -46 -11 -38 -61 -101 -80 -101 -4 0 -17 -14 -29 -30 l-22
-30 31 -29 c36 -34 87 -58 291 -141 174 -70 200 -79 250 -87 68 -10 66 -38 -3
-71 -25 -12 -50 -29 -55 -38 -8 -14 -21 -16 -83 -11 -101 7 -112 11 -177 54
-31 21 -91 49 -132 62 -110 36 -137 48 -160 78 -40 51 -86 71 -121 52 -27 -14
-24 -37 11 -89 47 -71 73 -176 54 -224 -9 -24 -49 -19 -75 8 -13 14 -29 44
-34 68 -9 35 -17 46 -48 61 -24 11 -48 35 -69 68 -20 34 -43 56 -65 65 -19 8
-36 21 -40 29 -8 22 -41 18 -54 -7 -18 -33 -12 -120 16 -239 7 -31 9 -62 5
-69 -15 -24 -58 0 -111 60 -29 34 -60 60 -71 60 -10 0 -30 12 -43 26 -33 36
-76 44 -201 40 -146 -6 -188 -16 -250 -63 -17 -13 -38 -23 -46 -23 -44 0 -50
-88 -9 -131 12 -13 21 -26 21 -30 0 -9 -23 -25 -35 -24 -83 9 -95 105 -29 240
51 105 90 141 174 162 25 7 68 22 95 34 28 13 52 24 55 24 3 1 21 9 41 18 19
8 46 18 60 22 14 3 41 19 60 36 36 31 61 35 106 18 119 -46 287 -41 309 9 8
19 6 64 -4 74 -12 12 -72 19 -184 23 -127 5 -172 21 -159 58 7 20 104 95 124
96 4 1 22 14 40 31 18 16 42 30 54 30 20 0 103 73 103 91 0 4 14 10 30 14 17
4 41 21 56 40 14 18 38 38 55 44 16 5 29 11 30 13 12 75 10 88 -16 113 -23 21
-26 27 -15 40 8 10 17 12 24 6 13 -10 67 -6 75 7 21 31 103 43 135 19z m-312
-111 c16 -22 7 -44 -20 -54 -45 -15 -89 15 -71 49 15 28 73 31 91 5z m597
-541 c2 -116 -52 -91 -58 27 -1 37 2 47 16 50 21 5 42 -33 42 -77z"/>
<path d="M2816 3461 c-3 -5 -7 -30 -10 -57 -6 -80 22 -125 41 -66 10 27 9 92
-1 118 -6 16 -22 19 -30 5z"/>
</g>
</svg>
