<?xml version="1.0" encoding="utf-8"?>
<svg version="1.0" width="212.000000pt" height="230.000000pt" viewBox="0 0 212.000000 230.000000" preserveAspectRatio="xMidYMid meet" xmlns="http://www.w3.org/2000/svg">
  <g transform="translate(0.000000,230.000000) scale(0.050000,-0.050000)" fill="#000000" stroke="none">
    <path d="M3760 4160 c39 -8 -449 -16 -1084 -17 -639 -2 -1158 -11 -1165 -21 -5 -9 13 -41 42 -70 45 -45 50 -60 31 -100 -21 -47 -18 -48 92 -62 157 -20 216 -123 129 -228 -56 -67 -125 -37 -111 47 6 40 1 72 -13 80 -27 17 -101 -43 -101 -82 0 -15 -8 -27 -17 -27 -28 0 -47 -401 -21 -432 12 -15 25 -53 27 -85 3 -31 10 -65 16 -75 6 -10 14 -54 17 -98 3 -44 18 -98 32 -119 14 -22 26 -64 26 -93 0 -30 13 -59 30 -65 24 -10 26 -21 7 -62 -19 -42 -17 -58 12 -90 19 -21 29 -47 23 -58 -7 -11 5 -51 26 -89 21 -38 41 -95 44 -126 4 -32 18 -73 33 -90 15 -18 29 -65 33 -103 3 -39 25 -96 49 -126 24 -30 43 -74 43 -98 0 -24 9 -52 19 -62 24 -24 101 -260 101 -309 0 -19 14 -46 30 -60 17 -14 27 -30 22 -35 -5 -5 9 -41 31 -80 21 -38 34 -84 28 -101 -7 -16 1 -44 16 -62 16 -18 32 -50 36 -72 20 -106 101 -46 110 80 4 66 23 152 42 190 18 39 35 82 37 96 3 15 24 66 46 115 23 49 42 103 42 121 0 58 46 197 77 233 16 19 22 35 12 35 -9 0 -6 11 7 24 13 13 24 58 24 99 0 41 9 80 20 87 11 7 20 33 20 57 0 25 11 56 25 70 14 14 26 49 28 79 2 30 14 95 26 144 12 50 26 122 32 160 35 254 58 373 76 397 43 54 18 580 -33 688 -60 130 -127 129 -117 0 3 -47 -2 -85 -12 -85 -42 0 -85 77 -85 153 0 223 140 261 284 77 90 -116 115 -129 156 -80 27 33 110 42 90 10 -7 -11 -3 -20 9 -20 38 0 22 -74 -21 -103 -46 -31 -80 -557 -36 -557 10 0 18 17 18 38 0 20 14 48 30 62 17 14 30 41 30 61 0 20 9 42 20 49 11 7 20 28 20 46 0 19 27 57 60 84 58 48 59 52 31 106 -58 111 -5 334 64 266 15 -16 17 -26 22 -127 4 -82 46 -85 101 -8 22 31 52 57 66 59 14 1 67 7 117 14 193 25 297 -237 109 -273 -34 -6 -42 -29 -53 -162 -7 -85 -22 -167 -35 -182 -31 -38 15 -75 74 -60 37 10 44 3 44 -41 0 -44 -9 -52 -59 -52 -32 0 -64 -9 -72 -21 -20 -33 32 -81 74 -68 30 10 37 1 37 -48 0 -33 -11 -63 -25 -68 -15 -5 -22 -36 -18 -82 5 -60 0 -73 -30 -72 -51 0 -114 92 -100 144 12 47 -17 115 -50 115 -15 0 -18 -30 -10 -90 10 -77 7 -90 -22 -89 -48 1 -105 47 -105 85 0 17 -9 37 -20 44 -43 27 -23 114 23 99 39 -12 42 -8 33 54 -17 106 -1 124 66 76 47 -34 69 -38 113 -23 51 18 52 20 15 35 -103 41 -103 230 0 326 39 37 70 76 70 88 0 12 15 38 32 58 18 19 27 50 21 68 -17 43 -113 30 -141 -20 -25 -44 -51 -80 -87 -120 -14 -16 -25 -35 -25 -43 0 -8 -15 -31 -33 -52 -40 -43 -59 -76 -165 -288 -45 -90 -82 -176 -82 -193 0 -17 -13 -36 -28 -42 -16 -5 -34 -38 -42 -71 -7 -34 -21 -67 -32 -73 -10 -6 -18 -33 -18 -59 0 -26 -8 -53 -18 -59 -9 -6 -24 -44 -31 -86 -8 -41 -32 -94 -54 -118 -22 -23 -38 -55 -35 -70 4 -26 -22 -104 -63 -187 -10 -22 -22 -70 -26 -107 -4 -37 -18 -74 -32 -82 -13 -9 -23 -32 -21 -53 5 -48 -20 -128 -40 -128 -8 0 -20 -37 -26 -83 -6 -45 -22 -90 -36 -98 -14 -9 -28 -32 -31 -52 -15 -108 -45 -213 -65 -233 -12 -12 -22 -46 -22 -76 0 -29 -12 -58 -27 -64 -15 -6 -44 -72 -63 -147 -56 -216 -57 -217 -250 -217 l-166 0 -33 100 c-49 143 -108 270 -126 270 -8 0 -15 21 -15 46 0 25 -23 92 -51 148 -28 57 -57 137 -63 179 -8 45 -32 91 -58 112 -38 30 -71 110 -71 170 0 8 -13 29 -28 47 -16 17 -23 38 -15 46 8 8 6 20 -5 28 -17 12 -96 171 -101 203 -3 20 -48 111 -86 171 -20 33 -33 66 -30 73 4 7 -6 24 -22 37 -17 14 -30 36 -30 48 0 35 -48 132 -65 132 -8 0 -15 16 -15 35 0 20 -18 47 -41 61 -22 14 -35 34 -28 45 13 21 -219 509 -251 529 -11 6 -37 50 -60 96 -76 155 -101 192 -157 232 -83 59 -122 25 -65 -56 73 -101 15 -139 -83 -55 -64 55 -67 82 -22 175 60 121 101 126 244 28 l102 -70 49 50 c91 91 138 41 87 -90 -30 -76 -30 -79 28 -143 76 -86 117 -169 117 -240 0 -50 7 -57 60 -57 61 0 90 79 40 110 -26 16 -26 122 0 171 26 47 -3 101 -95 185 -74 66 -80 105 -26 169 44 53 61 57 61 15 0 -16 9 -30 20 -30 11 0 20 -17 20 -37 0 -122 91 -112 189 22 54 73 33 203 -27 166 -48 -30 -85 65 -41 105 43 41 39 90 -7 74 -13 -5 -224 -13 -469 -17 -245 -4 -451 -12 -456 -18 -23 -22 -10 -1379 12 -1407 13 -14 17 -34 11 -44 -17 -28 -18 -879 -1 -906 8 -13 13 -232 11 -486 -3 -386 1 -469 26 -502 40 -53 40 -143 0 -166 -48 -27 -30 -136 22 -128 22 3 213 5 423 4 211 -1 388 6 394 15 5 8 408 15 896 13 488 -1 902 6 919 15 18 8 60 5 93 -7 50 -19 70 -17 111 9 41 27 92 32 292 25 239 -8 242 -8 241 36 -2 50 -35 138 -38 98 -1 -19 -11 -20 -42 -3 -53 28 -40 69 23 69 l48 0 -4 1297 c-4 939 -11 1305 -28 1325 -24 29 -13 137 25 233 16 41 16 63 -3 84 -14 18 -26 113 -30 239 -7 252 -8 253 -126 249 -92 -2 -93 -3 -24 -17z m-1724 -73 c30 -30 28 -37 -36 -90 l-68 -57 54 -56 c30 -31 54 -71 54 -90 0 -53 -75 -41 -106 17 -14 28 -48 62 -75 76 -71 35 -66 105 6 97 41 -4 55 3 55 29 0 76 69 121 116 74z m-706 -44 c-5 -14 -10 -39 -10 -55 0 -19 -24 -28 -80 -28 -44 0 -80 9 -80 20 0 11 -18 20 -40 20 -27 0 -40 -13 -40 -40 0 -44 -125 -60 -150 -20 -7 11 -38 20 -70 20 -32 0 -63 -9 -70 -20 -19 -30 -89 -24 -123 10 -27 27 -26 35 16 70 53 44 137 52 173 16 18 -18 34 -18 69 0 25 13 99 26 165 29 221 10 251 7 240 -22z m1855 25 c26 -26 -84 -108 -144 -108 -69 0 -68 -1 -41 69 18 49 148 77 185 39z m262 -17 c36 -27 35 -30 -13 -82 l-50 -55 -54 54 c-81 81 23 154 117 83z m280 -1 c59 -44 -1 -90 -116 -90 -86 0 -130 55 -82 102 22 22 164 13 198 -12z m-1182 -70 c-3 -28 -23 -65 -45 -83 -22 -18 -40 -42 -40 -53 0 -28 -86 -46 -102 -21 -37 60 79 223 152 213 30 -5 39 -19 35 -56z m-311 27 c-7 -7 -3 -31 9 -53 19 -35 22 -165 10 -412 -4 -91 -43 -100 -80 -18 -82 180 -47 493 55 496 10 0 13 -6 6 -13z m297 -383 c-13 -57 -17 -59 -92 -49 -52 7 -79 2 -79 -12 0 -41 -55 -24 -66 19 -17 64 24 112 114 132 104 24 142 -4 123 -90z m-501 41 c59 -67 66 -145 13 -145 -61 0 -151 115 -131 168 18 48 64 39 118 -23z m736 -150 c14 -103 17 -100 -106 -106 -102 -6 -149 48 -70 78 22 9 27 27 18 63 -12 47 -8 50 67 50 79 0 80 -1 91 -85z m-895 -44 c62 -62 62 -86 -1 -115 -62 -28 -65 -69 -5 -87 107 -32 198 -180 135 -219 -11 -7 -20 -28 -20 -47 0 -20 -11 -50 -25 -68 -29 -38 -86 -54 -86 -25 0 11 12 17 27 14 18 -4 25 9 20 40 -5 35 -17 45 -52 41 -58 -6 -111 40 -80 71 27 27 2 65 -35 51 -18 -7 -29 1 -29 21 0 19 14 38 30 45 56 21 36 73 -23 58 -47 -12 -51 -9 -42 38 5 29 -2 60 -18 73 -40 34 -33 78 13 78 22 0 51 18 65 40 33 53 66 50 126 -9z m-1040 -13 c8 -13 16 -62 18 -110 2 -53 18 -103 42 -129 44 -49 42 -149 -4 -195 -26 -26 -26 -33 1 -60 28 -28 36 -26 80 22 80 86 116 30 95 -146 -2 -16 -5 -52 -6 -80 -2 -56 -33 -105 -58 -89 -9 5 -22 1 -29 -11 -34 -56 -55 -14 -44 91 10 95 7 111 -21 105 -44 -8 -67 -105 -41 -178 16 -47 14 -67 -9 -94 -17 -19 -37 -64 -45 -101 -13 -64 -15 -65 -43 -25 -16 23 -41 35 -58 29 -31 -12 -38 25 -16 85 13 33 15 32 29 -3 15 -39 31 50 18 101 -3 11 -5 34 -4 52 0 17 -26 47 -59 66 -83 49 -73 120 18 128 81 8 81 12 -5 93 -84 79 -93 143 -21 142 27 -1 60 -12 74 -26 36 -36 84 -31 111 13 28 45 15 62 -45 62 -55 0 -69 34 -69 172 0 108 49 154 91 86z m1609 -17 c0 -151 -397 -223 -449 -81 -6 16 -16 41 -23 55 -8 17 8 25 49 25 33 0 63 -10 67 -21 17 -52 168 -46 222 9 63 62 134 70 134 13z m250 -101 c7 -11 30 -20 51 -20 28 0 39 -14 39 -50 0 -33 -11 -50 -32 -50 -33 0 -32 -22 3 -135 11 -37 6 -45 -29 -45 -23 0 -42 8 -42 18 0 36 -65 42 -90 8 -21 -28 -31 -30 -56 -10 -40 34 -55 164 -19 164 17 0 25 17 21 45 -4 32 3 44 26 40 18 -3 44 8 58 25 29 35 53 38 70 10z m-277 -200 c7 -33 18 -60 26 -60 13 0 61 -133 61 -167 0 -21 -77 -15 -90 7 -21 34 -72 22 -111 -25 -31 -37 -42 -40 -57 -17 -17 26 -48 24 -127 -8 -31 -13 -35 -1 -35 97 0 114 50 166 119 124 12 -8 27 1 33 18 7 17 29 31 50 31 21 0 38 14 38 30 0 60 80 34 93 -30z m147 -330 c0 -61 6 -70 50 -70 40 0 50 -10 50 -49 0 -26 10 -73 21 -104 17 -45 15 -60 -11 -80 -18 -13 -35 -36 -38 -50 -15 -73 -56 -138 -106 -170 -31 -20 -63 -48 -72 -62 -9 -14 -34 -25 -55 -25 -53 0 -52 82 1 130 22 20 40 51 40 69 0 44 39 81 85 81 89 0 36 147 -60 166 -87 17 -129 94 -52 94 47 0 107 58 107 103 0 20 9 37 20 37 11 0 20 -31 20 -70z m-469 -11 c7 -12 35 -30 61 -40 88 -33 59 -79 -50 -79 -112 0 -164 -39 -122 -90 14 -16 34 -30 45 -30 24 0 115 -94 115 -119 0 -9 13 -42 30 -74 16 -31 30 -73 30 -92 0 -19 9 -35 20 -35 12 0 20 107 20 280 0 287 3 299 68 250 35 -26 36 -45 21 -244 -8 -119 -15 -238 -13 -266 1 -27 3 -117 4 -200 1 -82 10 -226 20 -319 18 -156 16 -173 -20 -211 -23 -24 -40 -70 -40 -106 0 -102 -39 -74 -45 31 -2 52 -5 239 -5 415 l0 319 -52 11 c-28 5 -81 44 -117 85 -36 41 -82 75 -103 75 -29 0 -38 14 -38 60 0 33 -9 60 -20 60 -11 0 -20 21 -20 46 0 25 -9 55 -21 67 -44 44 60 191 151 213 64 15 67 15 81 -7z m1309 -61 c0 -11 -16 -25 -35 -32 -19 -6 -51 -26 -70 -42 -32 -28 -35 -26 -35 23 0 39 10 53 39 53 21 0 44 9 51 20 14 23 50 8 50 -22z m500 -16 c0 -9 -18 -22 -40 -28 -30 -8 -40 -27 -41 -77 0 -51 -5 -60 -19 -35 -27 46 19 158 64 158 20 0 36 -8 36 -18z m-276 -147 c-7 -56 4 -63 88 -56 143 11 285 -471 153 -521 -63 -24 -80 -10 -37 32 42 43 38 125 -9 200 -21 33 -47 78 -56 100 -33 71 -89 107 -150 96 -67 -13 -86 -51 -57 -115 20 -44 1 -91 -38 -91 -22 0 -82 101 -87 148 -10 89 -43 125 -70 75 -12 -24 -18 -52 -11 -63 21 -35 -33 -188 -90 -253 -30 -35 -59 -75 -64 -89 -7 -22 -24 -22 -92 -1 -74 22 -116 63 -65 63 53 0 145 124 136 182 -4 33 -1 64 8 70 10 6 34 48 56 95 80 176 403 283 385 128z m-2404 -96 c28 -15 67 -37 89 -49 21 -11 53 -60 71 -110 19 -49 44 -115 57 -146 13 -31 23 -68 23 -83 0 -14 14 -37 30 -51 39 -32 40 -120 1 -120 -48 0 -131 45 -131 70 0 13 -13 50 -28 82 -16 32 -33 94 -40 138 -6 44 -11 82 -11 85 -2 14 -80 3 -90 -13 -6 -9 0 -46 12 -82 39 -113 -45 -129 -107 -20 -47 83 -184 87 -258 8 l-48 -52 60 -48 c33 -26 67 -48 75 -48 9 0 10 -23 3 -50 -7 -29 -2 -63 12 -80 13 -16 24 -63 24 -104 0 -114 38 -118 92 -10 26 52 58 114 71 139 26 50 108 61 125 17 6 -16 -36 -96 -94 -179 -89 -128 -101 -156 -79 -182 38 -46 48 -40 123 69 37 55 83 100 101 100 17 0 43 14 57 30 28 34 131 41 150 10 7 -11 35 -20 62 -20 44 0 87 -48 64 -71 -5 -5 -53 -14 -108 -21 -119 -15 -248 -67 -248 -100 0 -14 -11 -28 -24 -33 -44 -14 7 -59 54 -47 97 25 84 -72 -20 -148 -47 -35 -71 -72 -80 -121 -11 -64 -79 -137 -104 -111 -6 5 0 67 12 138 30 171 29 174 -25 174 -43 0 -48 -9 -49 -85 -4 -276 -9 -315 -42 -315 -37 0 -53 192 -19 233 12 15 12 28 -2 36 -36 23 -53 -4 -58 -92 -3 -47 -14 -96 -24 -108 -10 -13 -13 -28 -7 -35 7 -6 4 -23 -5 -38 -9 -14 -17 -32 -17 -39 -1 -43 -125 -176 -165 -177 -63 0 -60 73 5 124 84 66 53 311 -49 390 -54 41 22 100 89 69 106 -48 172 34 70 87 -33 17 -60 41 -60 53 0 27 -52 71 -115 97 -45 19 -60 68 -27 89 38 23 139 -16 210 -81 41 -38 83 -63 93 -57 24 14 25 89 2 89 -49 0 -126 159 -123 253 5 133 3 147 -20 147 -11 0 -20 -37 -20 -82 0 -67 -6 -80 -32 -70 -17 7 -49 12 -70 12 -21 0 -38 10 -38 21 0 12 8 16 18 10 27 -16 42 41 17 66 -15 15 -14 30 4 51 13 17 19 39 12 50 -41 67 180 234 253 190 27 -17 43 53 19 77 -17 17 -23 14 -23 -12 0 -20 -9 -30 -20 -23 -139 86 172 192 320 109z m2554 -412 c-7 -95 -18 -138 -42 -151 -17 -10 -32 -36 -32 -57 0 -47 2 -47 89 -11 37 16 73 23 79 17 29 -29 7 -85 -43 -109 -30 -14 -64 -46 -75 -71 -11 -25 -26 -45 -35 -45 -8 0 -15 -8 -15 -18 0 -36 64 -41 124 -10 105 55 119 1 22 -87 -136 -124 -158 -230 -34 -164 71 38 97 3 57 -77 -18 -35 -42 -64 -53 -64 -39 0 -6 -318 36 -349 31 -23 32 -32 10 -59 -36 -43 -57 -40 -72 8 -7 22 -36 68 -65 102 -31 38 -55 93 -60 144 -4 46 -17 89 -28 96 -14 9 -15 60 -2 160 21 159 17 187 -27 170 -17 -6 -28 2 -28 20 0 22 12 27 40 18 31 -10 40 -4 40 29 0 35 -12 41 -83 41 l-82 0 10 -80 c7 -46 2 -85 -10 -93 -13 -8 -8 -22 14 -39 40 -29 27 -97 -22 -116 -41 -16 -68 2 -55 37 6 16 -36 74 -101 139 -61 61 -111 129 -111 152 0 47 44 53 80 10 53 -64 119 -21 76 50 -34 55 -209 167 -235 150 -31 -19 -25 -50 9 -50 17 0 30 -9 30 -20 0 -11 -10 -20 -21 -20 -39 0 -79 56 -79 109 0 28 -9 51 -20 51 -11 0 -20 9 -20 20 0 11 31 20 69 20 38 0 75 10 82 21 8 14 24 6 42 -20 16 -22 47 -41 68 -41 22 0 51 -25 69 -60 23 -44 43 -58 80 -55 58 4 60 8 23 45 -33 33 -99 284 -82 311 49 80 144 -46 146 -194 2 -188 82 -158 86 32 3 126 60 241 120 241 36 0 39 -11 31 -133z m-1614 -82 c0 -14 9 -25 20 -25 26 0 26 -74 0 -90 -25 -16 -139 69 -162 120 -10 22 -29 56 -43 76 -20 29 -20 38 3 53 32 20 181 -90 182 -134z m412 108 c13 -35 -110 -233 -145 -233 -31 0 -37 91 -7 110 11 7 20 33 20 57 0 80 106 133 132 66z m347 -438 c21 -20 28 -20 35 0 11 28 86 35 86 7 0 -9 16 -22 36 -27 19 -5 36 -27 38 -50 5 -63 144 -245 188 -245 43 0 49 -21 14 -56 -34 -34 -50 -30 -62 16 -7 26 -27 40 -57 40 -54 0 -208 147 -220 210 -11 56 -66 50 -74 -8 -11 -81 101 -240 172 -241 14 -1 25 -10 25 -21 0 -11 14 -20 31 -20 18 0 61 -22 97 -50 36 -27 81 -50 99 -50 18 0 33 -9 33 -20 0 -11 18 -20 40 -20 46 0 55 -56 11 -72 -16 -6 -43 -3 -61 7 -42 23 -170 -15 -170 -51 0 -19 33 -26 115 -25 174 1 185 0 185 -20 0 -11 12 -19 27 -19 95 0 215 -100 246 -205 23 -77 23 -78 -15 -43 -100 90 -241 107 -310 38 -61 -61 -148 -68 -148 -11 0 21 9 44 20 51 31 19 24 84 -11 98 -41 15 -124 -41 -140 -95 -30 -102 -61 -154 -89 -148 -45 8 -46 77 -2 179 21 51 34 98 27 104 -27 28 -80 8 -105 -39 -30 -54 -154 -141 -174 -121 -7 7 -29 -3 -49 -21 -21 -18 -37 -26 -37 -17 0 9 -16 3 -35 -14 -39 -34 -179 -62 -194 -38 -30 49 22 108 147 165 72 32 146 68 162 78 17 11 44 24 60 31 119 44 137 108 31 108 -61 0 -71 7 -71 46 0 25 -11 57 -24 70 -71 71 35 86 113 16 109 -97 264 -128 240 -47 -17 57 -88 114 -124 100 -15 -5 -47 9 -72 32 -25 23 -74 52 -109 65 -70 24 -78 48 -34 106 16 21 24 45 19 54 -5 8 -1 21 11 28 11 7 20 48 20 91 0 83 14 96 59 54z m-1263 -78 c9 -48 -136 -64 -172 -20 -22 28 -19 35 20 46 74 22 145 10 152 -26z m84 -104 c0 -16 6 -56 13 -90 13 -70 -35 -91 -69 -30 -28 50 -64 13 -64 -65 0 -59 -10 -73 -70 -102 -80 -38 -84 -47 -33 -93 48 -44 297 34 288 90 -5 31 47 91 65 74 15 -15 -14 -157 -30 -147 -9 5 -21 -12 -28 -40 -7 -27 -30 -58 -52 -70 -76 -41 -44 -82 110 -141 22 -8 72 -28 110 -45 95 -40 167 -63 185 -58 8 2 15 -6 15 -18 0 -12 -18 -26 -40 -32 -22 -6 -40 -20 -40 -31 0 -22 -161 -3 -179 21 -19 25 -91 59 -157 73 -35 8 -74 32 -85 53 -22 41 -99 53 -99 15 0 -13 12 -38 27 -55 36 -42 57 -157 31 -173 -28 -18 -78 29 -78 73 0 21 -14 38 -30 38 -17 0 -41 23 -54 50 -12 28 -34 50 -48 50 -13 0 -28 11 -33 24 -4 13 -18 16 -33 7 -23 -14 -19 -112 11 -216 15 -54 -47 -43 -85 15 -18 27 -44 50 -59 50 -14 0 -29 11 -34 25 -13 39 -267 28 -312 -13 -20 -17 -47 -32 -60 -32 -30 0 -30 -65 1 -96 29 -29 8 -53 -33 -37 -88 33 19 292 120 293 12 0 59 18 104 40 46 22 91 40 102 40 10 0 29 13 42 29 17 20 37 24 68 12 116 -44 243 -34 243 19 0 54 1 54 -161 58 -129 2 -143 40 -39 98 33 19 63 41 67 49 3 8 19 15 34 15 16 0 40 18 54 40 13 22 36 40 50 40 15 0 31 14 38 30 6 17 24 30 39 30 17 0 28 21 28 50 0 28 -9 50 -20 50 -11 0 -20 8 -20 18 0 10 17 14 38 8 21 -5 44 0 51 12 20 32 111 27 111 -5z m-240 -83 c0 -17 -18 -30 -40 -30 -22 0 -40 13 -40 30 0 17 18 30 40 30 22 0 40 -13 40 -30z m440 -390 c0 -33 -8 -60 -18 -60 -9 0 -21 27 -26 60 -6 41 -1 60 17 60 17 0 27 -23 27 -60z"/>
    <path d="M1920 2540 c0 -33 9 -60 20 -60 11 0 20 27 20 60 0 33 -9 60 -20 60 -11 0 -20 -27 -20 -60z"/>
  </g>
  <path style="fill: rgb(216, 216, 216); stroke: rgb(0, 0, 0);" d="M 114.01 178.741 C 114.01 178.741 86.471 104.143 76.258 66.232 C 74.406 59.36 78.128 44.963 78.128 44.963 L 84.07 40.246 L 83.947 46.983 L 86.268 49.07 L 92.284 41.153 L 78.88 34.141 L 68.081 45.835 L 63.798 35.771 L 59.085 42.087 L 65.997 52.13 L 68.055 67.074 L 63.276 70.415 C 63.276 70.415 57.495 36.809 54.557 38.866 C 44.117 46.173 40.425 38.738 35.402 39.177 C 31.511 39.517 25.402 45.276 27.959 48.228 C 43.063 65.668 34.49 48.361 36.923 48.904 C 48.889 51.573 59.536 87.733 69.676 105.953 C 84.768 133.072 107.222 187.539 107.222 187.539 L 114.374 187.733 L 114.01 178.741 Z"/>
  <path style="fill: rgb(216, 216, 216); stroke: rgb(0, 0, 0);"/>
</svg>